<svg width="20" height="20" viewBox="0 0 20 20" fill="none" xmlns="http://www.w3.org/2000/svg">
<path fill-rule="evenodd" clip-rule="evenodd" d="M9.99996 18.3332C5.39759 18.3332 1.66663 14.6022 1.66663 9.99984C1.66663 5.39746 5.39759 1.6665 9.99996 1.6665C14.6023 1.6665 18.3333 5.39746 18.3333 9.99984C18.3333 14.6022 14.6023 18.3332 9.99996 18.3332ZM10.8333 5.83317C10.8333 6.29341 10.4602 6.6665 9.99996 6.6665C9.53972 6.6665 9.16663 6.29341 9.16663 5.83317C9.16663 5.37293 9.53972 4.99984 9.99996 4.99984C10.4602 4.99984 10.8333 5.37293 10.8333 5.83317ZM9.99996 8.33317C10.4602 8.33317 10.8333 8.70627 10.8333 9.1665V14.1665C10.8333 14.6267 10.4602 14.9998 9.99996 14.9998C9.53972 14.9998 9.16663 14.6267 9.16663 14.1665V9.1665C9.16663 8.70627 9.53972 8.33317 9.99996 8.33317Z" fill="#2D7AD2"/>
</svg>
