<svg width="104" height="104" viewBox="0 0 104 104" fill="none" xmlns="http://www.w3.org/2000/svg">
<rect width="104" height="104" rx="52" fill="#03BF8C" fill-opacity="0.1"/>
<path fill-rule="evenodd" clip-rule="evenodd" d="M52.0001 85.3332C33.5906 85.3332 18.6667 70.4093 18.6667 51.9998C18.6667 33.5903 33.5906 18.6665 52.0001 18.6665C70.4096 18.6665 85.3334 33.5903 85.3334 51.9998C85.3334 70.4093 70.4096 85.3332 52.0001 85.3332ZM69.3571 46.0235C70.6589 44.7218 70.6589 42.6112 69.3571 41.3095C68.0554 40.0077 65.9448 40.0077 64.6431 41.3095L47.0001 58.9525L39.3571 51.3095C38.0554 50.0077 35.9448 50.0077 34.6431 51.3095C33.3413 52.6112 33.3413 54.7218 34.6431 56.0235L44.6431 66.0235C45.9448 67.3253 48.0554 67.3253 49.3571 66.0235L69.3571 46.0235Z" fill="#03BF8C"/>
</svg>
