<svg width="14" height="18" viewBox="0 0 14 18" fill="none" xmlns="http://www.w3.org/2000/svg">
<path fill-rule="evenodd" clip-rule="evenodd" d="M1.16683 3.1665H4.11303C4.31521 1.75305 5.5308 0.666504 7.00016 0.666504C8.46953 0.666504 9.68511 1.75305 9.88729 3.1665H12.8335C13.2937 3.1665 13.6668 3.5396 13.6668 3.99984C13.6668 4.46007 13.2937 4.83317 12.8335 4.83317H1.16683C0.706592 4.83317 0.333496 4.46007 0.333496 3.99984C0.333496 3.5396 0.706592 3.1665 1.16683 3.1665ZM7.00016 2.33317C7.54442 2.33317 8.00744 2.68101 8.17904 3.1665H5.82129C5.99289 2.68101 6.4559 2.33317 7.00016 2.33317Z" fill="#E94964"/>
<path fill-rule="evenodd" clip-rule="evenodd" d="M11.8727 5.6665H2.12768C1.62056 5.6665 1.231 6.11566 1.30272 6.61769L2.52687 15.1867C2.70282 16.4183 3.75762 17.3332 5.00174 17.3332H8.9986C10.2427 17.3332 11.2975 16.4183 11.4735 15.1867L12.6976 6.61769C12.7693 6.11566 12.3798 5.6665 11.8727 5.6665ZM5.3335 8.1665C5.79374 8.1665 6.16684 8.5396 6.16684 8.99984V13.9998C6.16684 14.4601 5.79374 14.8332 5.3335 14.8332C4.87327 14.8332 4.50017 14.4601 4.50017 13.9998V8.99984C4.50017 8.5396 4.87327 8.1665 5.3335 8.1665ZM8.66684 8.1665C9.12707 8.1665 9.50017 8.5396 9.50017 8.99984V13.9998C9.50017 14.4601 9.12707 14.8332 8.66684 14.8332C8.2066 14.8332 7.8335 14.4601 7.8335 13.9998V8.99984C7.8335 8.5396 8.2066 8.1665 8.66684 8.1665Z" fill="#E94964"/>
</svg>
