<svg width="16" height="16" viewBox="0 0 16 16" fill="none" xmlns="http://www.w3.org/2000/svg">
<path d="M15.013 1.96096L14.039 0.986986C13.3897 0.337671 12.337 0.337672 11.6877 0.986987L10.966 1.70868C10.802 1.87265 10.802 2.13849 10.966 2.30246L13.6975 5.03401C13.8615 5.19798 14.1273 5.19798 14.2913 5.03402L15.013 4.31234C15.6623 3.66302 15.6623 2.61027 15.013 1.96096Z" fill="#03BF8C"/>
<path d="M1.57218 11.1024L9.18467 3.48992C9.34863 3.32595 9.61448 3.32595 9.77844 3.48992L12.51 6.22149C12.674 6.38546 12.674 6.6513 12.51 6.81527L4.89753 14.4278C4.66542 14.6599 4.3698 14.8181 4.04792 14.8825L1.00244 15.4916C0.708652 15.5503 0.449629 15.2913 0.508387 14.9975L1.11748 11.952C1.18186 11.6301 1.34007 11.3345 1.57218 11.1024Z" fill="#03BF8C"/>
</svg>
