<svg width="245" height="243" viewBox="0 0 245 243" fill="none" xmlns="http://www.w3.org/2000/svg">
<g filter="url(#filter0_d_42_3497)">
<rect x="2.5" width="240" height="240" rx="12" fill="white"/>
<path d="M124.295 229.253C186.669 229.253 237.234 200.058 237.234 164.045C237.234 128.032 186.669 98.8369 124.295 98.8369C61.9201 98.8369 11.3555 128.032 11.3555 164.045C11.3555 200.058 61.9201 229.253 124.295 229.253Z" fill="#F5F5F5"/>
<path d="M198.761 196.023C216.456 196.023 230.801 187.74 230.801 177.524C230.801 167.307 216.456 159.024 198.761 159.024C181.066 159.024 166.721 167.307 166.721 177.524C166.721 187.74 181.066 196.023 198.761 196.023Z" fill="#E0E0E0"/>
<path d="M117.675 187.503L81.5312 166.628L122.845 142.776L158.994 163.647L117.675 187.503Z" fill="#E0E0E0"/>
<path d="M19.2559 181.047L65.8735 207.961L104.974 185.391L58.3567 158.478L19.2559 181.047Z" fill="#E0E0E0"/>
<path d="M88.1904 54.543V51.8934C88.1705 51.7403 88.1115 51.595 88.019 51.4714C87.9265 51.3478 87.8037 51.2501 87.6624 51.1878L71.664 42.0102C71.2828 41.8186 70.8619 41.7188 70.4352 41.7188C70.0085 41.7188 69.5877 41.8186 69.2064 42.0102L23.2272 68.4102C23.086 68.4725 22.9632 68.5701 22.8707 68.6938C22.7782 68.8174 22.7191 68.9627 22.6992 69.1158V71.7654C22.7187 71.9187 22.7775 72.0642 22.8701 72.1879C22.9626 72.3116 23.0857 72.4091 23.2272 72.471L39.2208 81.6342C39.6021 81.8259 40.0229 81.9257 40.4496 81.9257C40.8763 81.9257 41.2972 81.8259 41.6784 81.6342L87.6576 55.2342C87.7991 55.1723 87.9222 55.0748 88.0147 54.9511C88.1073 54.8274 88.1662 54.6819 88.1856 54.5286L88.1904 54.543Z" fill="#F0F0F0"/>
<path d="M23.2264 69.807L39.2199 78.9846C39.6005 79.1785 40.0216 79.2796 40.4487 79.2796C40.8759 79.2796 41.297 79.1785 41.6776 78.9846L87.6568 52.5846C88.3336 52.1958 88.3336 51.567 87.6568 51.1734L71.6632 42.0102C71.2819 41.8186 70.8611 41.7188 70.4344 41.7188C70.0076 41.7188 69.5868 41.8186 69.2056 42.0102L23.2264 68.4102C22.5496 68.7894 22.5496 69.4182 23.2264 69.807Z" fill="#FAFAFA"/>
<path d="M40.4496 79.2821V81.9269C40.022 81.9331 39.5996 81.8325 39.2208 81.6341L23.2272 72.4805C23.0857 72.4186 22.9626 72.3211 22.8701 72.1974C22.7775 72.0737 22.7187 71.9282 22.6992 71.7749V69.1205C22.7086 69.0132 22.7432 68.9096 22.8 68.8181C22.6128 69.1589 22.752 69.5525 23.2272 69.8261L39.2208 78.9893C39.5986 79.1905 40.0217 79.2913 40.4496 79.2821Z" fill="#E0E0E0"/>
<path d="M49.041 56.8945L62.5914 64.6177L84.9738 51.7729L71.4282 44.0449L49.041 56.8945Z" fill="#E0E0E0"/>
<path d="M62.7459 64.0318L49.6755 56.5294C50.0152 55.4213 49.9899 54.2333 49.6035 53.1406L62.5923 60.5614C62.5923 60.5614 62.8419 61.3822 62.7459 64.0318Z" fill="white"/>
<path d="M61.9245 59.5193C62.2893 59.755 62.5933 60.0734 62.8119 60.4488C63.0304 60.8241 63.1573 61.2457 63.1821 61.6793V64.2041C63.1821 65.0009 62.6157 65.3225 61.9245 64.9289L49.0605 57.5177V56.8937L61.7709 64.1417C62.1885 64.3817 62.5245 64.1849 62.5245 63.7097V61.3673C62.5101 61.1071 62.4343 60.8541 62.3033 60.6288C62.1723 60.4036 61.9899 60.2125 61.7709 60.0713L49.0605 52.7993V52.0889L61.9245 59.5193Z" fill="#EBEBEB"/>
<path d="M49.0605 52.1133L71.4286 39.2637L84.3069 46.6557C84.6726 46.8916 84.9772 47.2107 85.1958 47.587C85.4144 47.9633 85.5408 48.386 85.5645 48.8205V51.3597C85.5816 51.5149 85.5562 51.6719 85.4911 51.8139C85.4261 51.9559 85.3237 52.0776 85.1949 52.1661L62.8125 65.0157C62.9389 64.9252 63.0392 64.803 63.1033 64.6615C63.1673 64.5199 63.1929 64.3639 63.1773 64.2093V61.6797C63.154 61.2457 63.0278 60.8235 62.8091 60.448C62.5904 60.0724 62.2856 59.7542 61.9197 59.5197L49.0605 52.1133Z" fill="#FAFAFA"/>
<path d="M62.8125 60.4366C63.0407 60.807 63.1681 61.2306 63.1821 61.6654V64.195C63.1976 64.3496 63.1721 64.5056 63.108 64.6472C63.044 64.7888 62.9437 64.911 62.8173 65.0014L85.1997 52.1518C85.3284 52.0633 85.4308 51.9416 85.4959 51.7996C85.561 51.6577 85.5863 51.5007 85.5693 51.3454V48.8206C85.5553 48.3858 85.4279 47.9622 85.1997 47.5918L62.8125 60.4366Z" fill="#F0F0F0"/>
<path d="M35.2644 37.6709L35.1348 39.3797L50.2644 47.4965L50.6052 46.4981L35.2644 37.6709Z" fill="#EBEBEB"/>
<path d="M50.4044 46.8961L35.75 38.4385L33.2012 39.9073L48.1436 48.6481L50.4044 46.8961Z" fill="white"/>
<path d="M45.3931 47.7412L43.9531 64.7236C43.9602 64.9153 44.0132 65.1026 44.1075 65.2696C44.2019 65.4366 44.335 65.5786 44.4955 65.6836L52.9963 70.6036C53.132 70.6786 53.2831 70.7213 53.4379 70.7284L48.1579 49.2196C48.0039 49.2112 47.8534 49.1703 47.7163 49.0996L47.1067 48.7444L45.3931 47.7412Z" fill="#E0E0E0"/>
<path d="M48.7915 49.0797L50.3083 47.7789L51.4171 46.8189C51.5323 46.6365 51.6667 46.5021 51.5947 46.3389L56.8075 67.6893C56.8795 67.8381 56.8987 68.1693 56.6923 68.2941L54.0667 70.5405C53.8679 70.6457 53.6423 70.6892 53.4187 70.6653L48.1387 49.1565C48.3591 49.1945 48.5859 49.1678 48.7915 49.0797Z" fill="#F0F0F0"/>
<path d="M51.4224 46.2001C51.72 46.3729 51.648 46.5649 51.4224 46.8241L48.792 49.0753C48.6246 49.1628 48.4385 49.2085 48.2496 49.2085C48.0607 49.2085 47.8746 49.1628 47.7072 49.0753L45.3936 47.7409C45.0912 47.5681 45.0384 47.3185 45.2736 47.1841C45.4282 47.1214 45.595 47.0949 45.7614 47.1065C45.9278 47.1182 46.0893 47.1677 46.2336 47.2513L48.0576 48.3073C48.1134 48.3356 48.1751 48.3503 48.2376 48.3503C48.3002 48.3503 48.3618 48.3356 48.4176 48.3073L50.3376 46.6369C50.4384 46.5793 50.4384 46.4881 50.3376 46.4305L35.2656 37.6705L35.9856 37.2529L51.4224 46.2001Z" fill="#FAFAFA"/>
<path d="M30.8965 38.4912L45.3109 46.8144V74.2416L30.8965 65.9136V38.4912Z" fill="#EBEBEB"/>
<path d="M44.8459 47.2701L30.8971 39.2637C30.044 40.1681 28.9267 40.7797 27.7051 41.0109L41.5387 48.9837C41.5387 48.9837 42.4315 48.7725 44.8459 47.2701Z" fill="white"/>
<path d="M40.1993 48.9601C40.615 49.1683 41.0735 49.2767 41.5385 49.2767C42.0034 49.2767 42.462 49.1683 42.8777 48.9601L45.2201 47.5873C45.9593 47.1601 45.9593 46.4737 45.2201 46.0465L31.4777 38.1553L30.8969 38.4913L44.4185 46.3009C44.5182 46.33 44.6058 46.3906 44.6681 46.4737C44.7304 46.5568 44.7641 46.6578 44.7641 46.7617C44.7641 46.8655 44.7304 46.9666 44.6681 47.0497C44.6058 47.1328 44.5182 47.1934 44.4185 47.2225L42.2345 48.4801C41.985 48.6055 41.7097 48.6707 41.4305 48.6707C41.1513 48.6707 40.8759 48.6055 40.6265 48.4801L27.1097 40.6657L26.4473 41.0449L40.1993 48.9601Z" fill="#FAFAFA"/>
<path d="M26.4512 41.0449V68.4673L40.1984 76.3585C40.6141 76.5667 41.0726 76.6752 41.5376 76.6752C42.0025 76.6752 42.4611 76.5667 42.8768 76.3585L45.2288 75.0097C45.3817 74.9423 45.5136 74.8349 45.6107 74.699C45.7078 74.563 45.7666 74.4034 45.7808 74.2369V46.8145C45.7659 46.9815 45.7057 47.1413 45.6067 47.2766C45.5078 47.4119 45.3738 47.5177 45.2192 47.5825L42.8768 48.9601C42.4611 49.1683 42.0025 49.2768 41.5376 49.2768C41.0726 49.2768 40.6141 49.1683 40.1984 48.9601L26.4512 41.0449Z" fill="#EBEBEB"/>
<path d="M41.5389 49.2529C42.0049 49.262 42.4656 49.153 42.8781 48.9361L45.2205 47.5825C45.3733 47.5163 45.5053 47.4099 45.6025 47.2747C45.6997 47.1394 45.7585 46.9804 45.7725 46.8145V74.2369C45.7583 74.4033 45.6995 74.5629 45.6024 74.6989C45.5053 74.8349 45.3734 74.9422 45.2205 75.0097L42.8685 76.3585C42.456 76.5754 41.9953 76.6844 41.5293 76.6753L41.5389 49.2529Z" fill="#F0F0F0"/>
<path d="M157.334 148.8C157.262 147.586 157.099 146.131 156.902 144.442C156.167 138.029 155.164 129.245 157.823 120.83C159.441 115.709 163.339 109.637 169.425 107.952C170.779 107.578 174.052 107.026 175.31 109.93C175.487 110.349 175.592 110.795 175.622 111.25C175.751 113.093 174.921 114.72 173.999 116.203C172.939 117.926 171.71 119.563 170.519 121.157C169.396 122.664 168.23 124.219 167.212 125.832C166.113 127.584 165.15 129.419 164.332 131.318L163.943 131.15C164.76 129.231 165.723 127.378 166.823 125.606C167.846 123.979 169.017 122.414 170.15 120.902C171.331 119.318 172.55 117.686 173.606 115.982C174.489 114.542 175.286 113.002 175.166 111.278C175.14 110.872 175.046 110.473 174.887 110.098C173.764 107.501 170.75 108.019 169.507 108.36C163.583 110.002 159.777 115.944 158.193 120.955C155.563 129.288 156.561 138.019 157.291 144.394C157.483 146.088 157.651 147.552 157.723 148.776L157.334 148.8Z" fill="#03BF8C"/>
<path d="M157.766 155.779C157.734 155.784 157.702 155.784 157.67 155.779C157.578 155.761 157.491 155.722 157.417 155.664C157.343 155.607 157.283 155.533 157.243 155.448C157.159 155.21 157.159 154.951 157.243 154.714C157.31 154.254 157.31 153.786 157.243 153.326C157.243 153.067 157.199 152.794 157.199 152.549V149.568C157.583 144.213 159.152 139.011 161.793 134.338C164.135 130.262 166.727 127.55 169.953 125.794C171.692 124.838 173.599 124.227 175.569 123.994C177.308 123.801 179.057 124.263 180.475 125.29C181.939 126.446 182.596 128.429 182.044 129.998C181.655 131.098 180.767 131.918 179.86 132.662C178.243 133.982 176.476 135.163 174.772 136.306C173.356 137.266 171.892 138.226 170.524 139.282C166.339 142.512 162.828 146.532 160.19 151.114C159.758 151.858 159.35 152.626 158.975 153.394L158.822 153.696C158.672 153.97 158.541 154.254 158.428 154.546C158.404 154.608 158.38 154.738 158.347 154.886C158.322 155.16 158.235 155.424 158.092 155.659C158.002 155.739 157.886 155.781 157.766 155.779ZM176.26 124.392C176.044 124.392 175.828 124.392 175.607 124.421C173.695 124.644 171.845 125.237 170.159 126.168C167.011 127.882 164.471 130.546 162.167 134.549C159.562 139.164 158.012 144.301 157.631 149.587V152.539C157.631 152.77 157.631 153.019 157.675 153.283C157.752 153.786 157.752 154.297 157.675 154.8C157.623 154.956 157.623 155.124 157.675 155.28C157.687 155.304 157.704 155.325 157.726 155.342C157.748 155.359 157.773 155.37 157.799 155.376C157.885 155.199 157.943 155.009 157.972 154.814C157.995 154.681 158.027 154.55 158.068 154.421C158.185 154.113 158.323 153.813 158.481 153.523L158.63 153.226C159.014 152.448 159.427 151.675 159.859 150.922C160.756 149.368 161.751 147.874 162.839 146.448C164.99 143.638 167.499 141.122 170.303 138.965C171.686 137.909 173.155 136.925 174.575 135.974C176.275 134.837 178.027 133.661 179.635 132.355C180.489 131.659 181.329 130.877 181.684 129.878C182.164 128.472 181.574 126.691 180.244 125.64C179.096 124.784 177.691 124.344 176.26 124.392Z" fill="#03BF8C"/>
<path d="M157.407 151.68H157.354C157.327 151.674 157.301 151.662 157.279 151.646C157.256 151.63 157.237 151.609 157.223 151.585C157.209 151.562 157.199 151.535 157.195 151.508C157.192 151.48 157.193 151.452 157.2 151.426C161.16 135.634 172.109 128.587 177.956 126.912C178.009 126.897 178.066 126.904 178.115 126.931C178.163 126.958 178.199 127.003 178.215 127.056C178.23 127.11 178.223 127.168 178.196 127.217C178.169 127.266 178.124 127.303 178.071 127.32C172.311 128.966 161.525 135.922 157.613 151.526C157.6 151.571 157.572 151.61 157.535 151.637C157.498 151.665 157.453 151.68 157.407 151.68Z" fill="#03BF8C"/>
<path d="M157.381 138.72C157.324 138.715 157.272 138.688 157.235 138.645C157.199 138.602 157.18 138.546 157.184 138.49C158.447 121.435 169.602 112.09 170.869 111.087C170.89 111.068 170.915 111.055 170.942 111.047C170.969 111.039 170.997 111.036 171.025 111.039C171.053 111.043 171.08 111.051 171.104 111.065C171.128 111.079 171.15 111.098 171.167 111.12C171.184 111.142 171.197 111.167 171.205 111.194C171.212 111.22 171.215 111.248 171.212 111.276C171.208 111.304 171.2 111.33 171.186 111.355C171.173 111.379 171.155 111.4 171.133 111.418C169.88 112.411 158.855 121.647 157.611 138.523C157.605 138.579 157.578 138.631 157.535 138.667C157.492 138.704 157.437 138.723 157.381 138.72Z" fill="#03BF8C"/>
<path d="M156.053 79.2428L129.36 63.8396C129.154 63.6914 128.912 63.6005 128.659 63.576C128.406 63.5516 128.151 63.5945 127.92 63.7004L126 64.8092C125.789 64.9562 125.621 65.157 125.514 65.3908C125.407 65.6246 125.364 65.8829 125.39 66.1388V139.2C125.43 139.911 125.636 140.604 125.993 141.221C126.35 141.838 126.847 142.363 127.445 142.752L154.133 158.136C154.339 158.285 154.581 158.376 154.833 158.402C155.086 158.427 155.341 158.385 155.573 158.28L157.493 157.166C157.701 157.018 157.867 156.818 157.972 156.585C158.078 156.352 158.119 156.095 158.093 155.841V82.7948C158.056 82.0841 157.852 81.3922 157.497 80.7751C157.143 80.158 156.648 79.6331 156.053 79.2428Z" fill="#263238"/>
<path d="M131.141 140.452L129.221 141.561V147.638C129.23 147.816 129.282 147.989 129.371 148.143C129.46 148.298 129.585 148.429 129.734 148.526L130.632 149.044C130.791 149.125 130.967 149.167 131.146 149.167C131.324 149.167 131.5 149.125 131.659 149.044L132.557 148.526C132.876 148.32 133.122 148.019 133.262 147.667L134.995 142.675L131.141 140.452Z" fill="#263238"/>
<path d="M129.221 147.638C129.23 147.816 129.282 147.989 129.371 148.144C129.46 148.298 129.585 148.429 129.734 148.526L130.632 149.045C130.694 149.082 130.764 149.105 130.836 149.112C130.908 149.119 130.981 149.109 131.049 149.084C131.117 149.058 131.178 149.018 131.228 148.965C131.278 148.913 131.315 148.85 131.338 148.781L133.061 143.784L129.221 141.562V147.638Z" fill="#37474F"/>
<path d="M150.399 151.536L148.479 152.65V158.722C148.487 158.9 148.538 159.074 148.626 159.229C148.715 159.384 148.838 159.516 148.987 159.615L149.89 160.133C150.048 160.213 150.223 160.255 150.401 160.255C150.579 160.255 150.754 160.213 150.912 160.133L151.815 159.615C152.133 159.409 152.38 159.108 152.52 158.755L154.248 153.759L150.399 151.536Z" fill="#263238"/>
<path d="M148.479 158.721C148.487 158.9 148.538 159.073 148.626 159.229C148.715 159.384 148.838 159.516 148.987 159.614L149.89 160.133C149.952 160.17 150.021 160.193 150.094 160.2C150.166 160.207 150.239 160.197 150.306 160.172C150.374 160.146 150.436 160.106 150.486 160.053C150.536 160.001 150.573 159.938 150.595 159.869L152.328 154.872L148.488 152.649L148.479 158.721Z" fill="#37474F"/>
<path d="M127.568 65.0058L154.256 80.3658C154.854 80.7558 155.351 81.281 155.708 81.8989C156.065 82.5168 156.271 83.2101 156.31 83.9226V156.983C156.361 157.24 156.33 157.506 156.222 157.744C156.114 157.982 155.934 158.181 155.708 158.312C155.481 158.442 155.219 158.499 154.959 158.473C154.699 158.448 154.453 158.341 154.256 158.169L127.568 142.78C126.971 142.391 126.475 141.866 126.118 141.249C125.762 140.632 125.557 139.94 125.518 139.228V66.1866C125.467 65.9304 125.497 65.6646 125.605 65.4266C125.713 65.1886 125.893 64.9904 126.119 64.86C126.346 64.7296 126.607 64.6735 126.867 64.6996C127.127 64.7258 127.372 64.8329 127.568 65.0058Z" fill="#37474F"/>
<path d="M88.8145 164.87L117.682 181.536L158.098 158.203L156.173 157.089L127.306 140.424L88.8145 162.648V164.87Z" fill="#455A64"/>
<path d="M117.682 181.536V179.314L158.098 155.981V158.203L117.682 181.536Z" fill="#263238"/>
<path d="M117.863 178.3L117.57 178.103C122.692 170.351 122.658 156.959 122.241 153.599C122.207 153.374 122.183 153.234 122.178 153.182L122.529 153.124C122.529 153.23 122.567 153.354 122.586 153.503C122.961 155.879 125.078 168.786 127.583 172.703L127.286 172.895C125.303 169.818 123.609 161.514 122.759 156.724C122.812 162.162 122.02 172.046 117.863 178.3Z" fill="#FAFAFA"/>
<path d="M134.721 166.464C134.284 166.335 124.079 163.243 123.139 158.741L123.489 158.669C124.382 162.965 134.716 166.095 134.822 166.128L134.721 166.464Z" fill="#FAFAFA"/>
<path d="M124.42 164.639L124.161 163.54C124.126 163.338 124.023 163.154 123.87 163.018C123.716 162.882 123.521 162.802 123.316 162.791C123.147 162.767 122.975 162.794 122.822 162.871C122.669 162.947 122.544 163.068 122.462 163.218L122.131 163.079C122.242 162.86 122.418 162.68 122.636 162.565C122.853 162.45 123.101 162.405 123.345 162.436C123.522 162.447 123.694 162.496 123.85 162.578C124.007 162.661 124.144 162.776 124.252 162.916C124.31 162.461 124.542 162.046 124.9 161.759C125.036 161.688 125.188 161.654 125.341 161.659C125.494 161.664 125.643 161.708 125.774 161.788L125.616 162.105C125.536 162.053 125.444 162.023 125.349 162.017C125.254 162.011 125.159 162.03 125.073 162.071C124.665 162.302 124.507 163.19 124.483 163.511L124.42 164.639Z" fill="#FAFAFA"/>
<path d="M125.424 168.302L125.107 167.304C124.747 166.176 124.147 165.528 123.437 165.484C123.14 165.479 122.848 165.56 122.596 165.717C122.345 165.875 122.145 166.103 122.021 166.372L121.699 166.219C121.851 165.882 122.1 165.597 122.413 165.402C122.727 165.206 123.091 165.108 123.461 165.12C123.888 165.144 124.622 165.374 125.17 166.488C125.29 165.609 125.65 164.198 126.576 163.608C126.909 163.425 127.282 163.332 127.662 163.336C128.041 163.34 128.412 163.442 128.741 163.632L128.592 163.953C128.317 163.791 128.005 163.701 127.686 163.694C127.366 163.686 127.05 163.761 126.768 163.91C125.534 164.678 125.453 167.217 125.453 167.246L125.424 168.302Z" fill="#FAFAFA"/>
<path d="M121.088 170.74L120.771 170.577C121.482 169.209 123.042 168.225 124.395 168.292C124.683 168.295 124.965 168.363 125.223 168.49C125.48 168.617 125.706 168.801 125.883 169.026C126.014 168.336 126.283 167.679 126.674 167.095C127.065 166.511 127.57 166.012 128.159 165.628C128.791 165.208 129.52 164.958 130.277 164.902C131.033 164.846 131.792 164.985 132.479 165.306L132.339 165.628C131.707 165.335 131.009 165.209 130.314 165.261C129.618 165.313 128.947 165.542 128.365 165.926C127.743 166.329 127.223 166.873 126.848 167.513C126.473 168.153 126.253 168.872 126.205 169.612V170.519L125.869 169.674C125.758 169.374 125.558 169.115 125.295 168.931C125.033 168.748 124.721 168.649 124.4 168.647C123.157 168.585 121.741 169.487 121.088 170.74Z" fill="#FAFAFA"/>
<path d="M119.14 176.04L118.828 175.867C119.26 175.08 121.559 171.124 124.281 170.409C124.665 170.299 125.068 170.272 125.464 170.329C125.859 170.386 126.238 170.526 126.575 170.74L126.393 171.043C126.096 170.855 125.762 170.732 125.414 170.681C125.066 170.631 124.711 170.654 124.372 170.75C122.375 171.278 120.311 173.928 119.14 176.04Z" fill="#FAFAFA"/>
<path d="M154.248 133.756V135.979L117.682 157.089L88.8145 140.424V138.201L125.381 117.091L154.248 133.756Z" fill="#263238"/>
<path d="M154.248 133.756L117.682 154.867L88.8145 138.201L125.381 117.091L154.248 133.756Z" fill="#455A64"/>
<path d="M154.248 109.315V111.533L117.682 132.648L88.8145 115.977V113.76L125.381 92.6445L154.248 109.315Z" fill="#263238"/>
<path d="M154.248 109.315L117.682 130.425L88.8145 113.76L125.381 92.6445L154.248 109.315Z" fill="#455A64"/>
<path d="M117.557 101.438L90.8692 86.0544C90.6633 85.9055 90.4215 85.8137 90.1686 85.7884C89.9157 85.7631 89.6606 85.8052 89.4292 85.9104C89.0836 86.1072 87.8548 86.8224 87.5092 87.0192C87.299 87.1668 87.1321 87.3679 87.0257 87.6017C86.9194 87.8354 86.8775 88.0934 86.9044 88.3488V161.39C86.9436 162.102 87.1501 162.795 87.507 163.412C87.864 164.029 88.3613 164.553 88.9588 164.942L115.647 180.331C115.853 180.48 116.095 180.572 116.347 180.597C116.6 180.623 116.855 180.58 117.087 180.475C117.432 180.274 118.671 179.563 119.007 179.357C119.218 179.211 119.386 179.011 119.494 178.778C119.602 178.545 119.646 178.288 119.621 178.032V104.995C119.582 104.282 119.374 103.588 119.015 102.969C118.657 102.351 118.157 101.827 117.557 101.438Z" fill="#263238"/>
<path opacity="0.2" d="M117.681 112.651L119.61 111.537V104.865L117.676 105.979L117.681 112.651Z" fill="black"/>
<path opacity="0.2" d="M156.177 90.4273L158.106 89.3185V82.6465L156.172 83.7601L156.177 90.4273Z" fill="black"/>
<path d="M92.6641 162.648L90.7441 163.757V169.834C90.7538 170.012 90.8054 170.185 90.8947 170.339C90.9839 170.494 91.1083 170.625 91.2577 170.722L92.1553 171.24C92.3146 171.321 92.4905 171.363 92.6689 171.363C92.8474 171.363 93.0233 171.321 93.1825 171.24L94.0801 170.722C94.3978 170.517 94.6443 170.218 94.7857 169.868L96.5185 164.871L92.6641 162.648Z" fill="#263238"/>
<path d="M90.7383 169.834C90.748 170.012 90.7996 170.185 90.8888 170.339C90.978 170.493 91.1024 170.624 91.2519 170.722L92.1495 171.24C92.2115 171.278 92.2812 171.301 92.3534 171.307C92.4256 171.314 92.4983 171.304 92.5662 171.279C92.6341 171.254 92.6954 171.213 92.7454 171.161C92.7954 171.108 92.8329 171.045 92.8551 170.976L94.5879 165.979L90.7479 163.757L90.7383 169.834Z" fill="#37474F"/>
<path d="M111.906 173.76L109.986 174.869V180.945C109.995 181.123 110.046 181.296 110.134 181.45C110.223 181.605 110.346 181.736 110.495 181.833L111.398 182.352C111.556 182.432 111.731 182.474 111.909 182.474C112.086 182.474 112.262 182.432 112.42 182.352L113.322 181.833C113.639 181.627 113.885 181.329 114.028 180.979L115.756 175.982L111.906 173.76Z" fill="#263238"/>
<path d="M109.986 180.922C109.995 181.099 110.046 181.272 110.134 181.427C110.223 181.581 110.346 181.712 110.495 181.81L111.398 182.328C111.46 182.365 111.529 182.388 111.601 182.395C111.674 182.402 111.746 182.392 111.814 182.367C111.882 182.341 111.943 182.301 111.993 182.249C112.043 182.196 112.081 182.133 112.103 182.064L113.831 177.067L109.991 174.845L109.986 180.922Z" fill="#37474F"/>
<path d="M88.9392 87.1681L115.632 102.552C116.229 102.942 116.726 103.468 117.082 104.086C117.438 104.704 117.643 105.397 117.682 106.109V181.536C117.682 181.536 116.198 180.658 115.632 180.331L88.944 164.943C88.3465 164.554 87.8491 164.029 87.4922 163.412C87.1352 162.795 86.9288 162.102 86.8896 161.391V88.3489C86.8382 88.0927 86.8686 87.8269 86.9764 87.5889C87.0841 87.3509 87.2639 87.1528 87.4902 87.0223C87.7166 86.8919 87.9782 86.8358 88.2382 86.862C88.4981 86.8881 88.7433 86.9952 88.9392 87.1681Z" fill="#37474F"/>
<path opacity="0.2" d="M115.632 102.552L88.9392 87.1681C88.7433 86.9952 88.4981 86.8881 88.2382 86.862C87.9782 86.8358 87.7166 86.8919 87.4902 87.0223C87.2639 87.1528 87.0841 87.3509 86.9764 87.5889C86.8686 87.8269 86.8382 88.0927 86.8896 88.3489V94.8721L117.682 112.632V106.109C117.643 105.397 117.438 104.704 117.082 104.086C116.726 103.468 116.229 102.942 115.632 102.552Z" fill="black"/>
<path d="M152.322 109.493C152.275 109.491 152.23 109.472 152.197 109.439C152.164 109.406 152.145 109.362 152.144 109.315V87.3983L131.24 99.4655C131.22 99.4782 131.198 99.4867 131.175 99.4904C131.152 99.4942 131.129 99.493 131.106 99.4872C131.084 99.4813 131.063 99.4708 131.044 99.4563C131.026 99.4419 131.011 99.4237 131 99.4031C130.988 99.383 130.98 99.3606 130.977 99.3374C130.973 99.3141 130.974 99.2904 130.98 99.2677C130.986 99.2449 130.996 99.2235 131.01 99.2047C131.024 99.186 131.042 99.1702 131.062 99.1583L152.259 86.9375C152.286 86.9209 152.317 86.9121 152.348 86.9121C152.379 86.9121 152.41 86.9209 152.437 86.9375C152.463 86.9534 152.485 86.9759 152.5 87.0028C152.516 87.0298 152.523 87.0602 152.523 87.0911V109.315C152.523 109.341 152.518 109.366 152.508 109.389C152.497 109.412 152.482 109.433 152.463 109.45C152.444 109.467 152.421 109.479 152.397 109.487C152.373 109.494 152.347 109.496 152.322 109.493Z" fill="#FAFAFA"/>
<path d="M148.473 103.934H148.421C148.375 103.924 148.335 103.896 148.31 103.856C148.285 103.817 148.276 103.769 148.286 103.723L151.867 88.2142L144.763 100.517C144.752 100.537 144.737 100.555 144.719 100.57C144.701 100.584 144.68 100.595 144.657 100.601C144.635 100.608 144.611 100.609 144.588 100.606C144.565 100.603 144.543 100.596 144.523 100.584C144.502 100.572 144.484 100.557 144.47 100.538C144.455 100.52 144.444 100.498 144.438 100.475C144.432 100.453 144.43 100.429 144.433 100.405C144.436 100.382 144.444 100.359 144.456 100.339L152.136 87.0046C152.158 86.9679 152.192 86.9402 152.232 86.9261C152.273 86.9121 152.317 86.9127 152.357 86.9278C152.396 86.9438 152.428 86.9735 152.448 87.0114C152.467 87.0492 152.472 87.0928 152.462 87.1342L148.622 103.805C148.614 103.839 148.595 103.87 148.568 103.893C148.542 103.916 148.509 103.93 148.473 103.934Z" fill="#FAFAFA"/>
<path d="M140.778 98.4001C140.754 98.4002 140.73 98.3952 140.708 98.3852C140.685 98.3753 140.665 98.3608 140.649 98.3425C140.616 98.3093 140.598 98.2644 140.598 98.2177C140.598 98.171 140.616 98.1262 140.649 98.0929L152.198 86.9809C152.231 86.9481 152.276 86.9297 152.323 86.9297C152.369 86.9297 152.414 86.9481 152.447 86.9809C152.48 87.015 152.499 87.0606 152.499 87.1081C152.499 87.1556 152.48 87.2013 152.447 87.2353L140.898 98.3425C140.883 98.3596 140.865 98.3735 140.844 98.3833C140.824 98.3932 140.801 98.3989 140.778 98.4001Z" fill="#FAFAFA"/>
<path d="M152.323 105.945C152.276 105.944 152.232 105.925 152.199 105.891C152.166 105.858 152.147 105.814 152.145 105.767C152.145 102.858 148.901 102.662 148.761 102.657C148.735 102.655 148.71 102.648 148.687 102.635C148.663 102.623 148.643 102.606 148.627 102.585C148.612 102.564 148.602 102.541 148.597 102.516C148.592 102.491 148.592 102.465 148.598 102.441C148.717 101.847 148.676 101.232 148.482 100.658C148.287 100.084 147.945 99.5716 147.489 99.172C147.323 99.0059 147.123 98.8772 146.903 98.7945C146.683 98.7117 146.447 98.6768 146.213 98.692C146.087 98.7132 145.968 98.7611 145.863 98.8323C145.758 98.9035 145.669 98.9964 145.603 99.1048C145.583 99.1399 145.552 99.167 145.514 99.1819C145.477 99.1967 145.435 99.1983 145.397 99.1864C145.358 99.1746 145.325 99.1501 145.302 99.117C145.28 99.0839 145.269 99.0441 145.272 99.004C145.272 98.8936 145.469 96.3064 143.193 96.052C143.164 96.0485 143.136 96.0379 143.112 96.0211C143.088 96.0044 143.068 95.9821 143.054 95.956C143.041 95.9308 143.034 95.9028 143.034 95.8744C143.034 95.846 143.041 95.8181 143.054 95.7928C143.054 95.7928 144.062 93.9064 143.673 92.98C143.629 92.8712 143.559 92.7746 143.469 92.6978C143.38 92.6211 143.274 92.5665 143.16 92.5384C143.137 92.5324 143.116 92.5218 143.097 92.5073C143.079 92.4927 143.063 92.4746 143.052 92.4539C143.041 92.4332 143.034 92.4105 143.032 92.387C143.03 92.3636 143.033 92.34 143.04 92.3176C143.054 92.2731 143.085 92.2359 143.126 92.2135C143.167 92.1912 143.215 92.1855 143.261 92.1976C143.426 92.2402 143.579 92.321 143.707 92.4335C143.836 92.5461 143.936 92.6873 144 92.8456C144.369 93.724 143.745 95.1784 143.477 95.7256C145.243 96.0664 145.569 97.732 145.617 98.5576C145.775 98.4455 145.955 98.3686 146.145 98.332C146.434 98.3041 146.725 98.3418 146.997 98.4424C147.269 98.543 147.514 98.7038 147.715 98.9128C148.192 99.3334 148.557 99.8659 148.777 100.462C148.998 101.059 149.066 101.701 148.977 102.33C149.755 102.431 152.501 102.974 152.496 105.777C152.493 105.821 152.474 105.863 152.442 105.895C152.41 105.926 152.368 105.944 152.323 105.945Z" fill="#FAFAFA"/>
<path d="M152.323 101.155C152.278 101.155 152.235 101.138 152.202 101.108C152.169 101.077 152.149 101.036 152.145 100.991C152.068 99.9738 151.478 98.6586 150.734 98.3322C150.587 98.2663 150.423 98.2449 150.264 98.2704C150.104 98.296 149.956 98.3675 149.836 98.4762C149.807 98.495 149.773 98.505 149.738 98.505C149.703 98.505 149.669 98.495 149.64 98.4762C149.609 98.4594 149.584 98.4342 149.568 98.4034C149.552 98.3727 149.545 98.3379 149.548 98.3034C149.548 98.3034 149.707 96.5034 148.896 95.7594C148.72 95.6124 148.511 95.5096 148.287 95.4595C148.064 95.4094 147.831 95.4135 147.609 95.4714C147.579 95.4779 147.547 95.476 147.517 95.4658C147.488 95.4557 147.461 95.4377 147.441 95.4138C147.421 95.3896 147.407 95.3606 147.401 95.3294C147.395 95.2983 147.397 95.2661 147.408 95.2362C147.571 94.7898 147.888 93.537 147.46 93.0906C147.259 92.8842 146.889 92.865 146.356 93.0378C146.32 93.0498 146.281 93.0498 146.244 93.0377C146.208 93.0255 146.177 93.002 146.155 92.9706C146.133 92.9397 146.121 92.9028 146.121 92.865C146.121 92.8271 146.133 92.7902 146.155 92.7594C146.452 92.385 147.187 91.2906 147.004 90.7674C146.974 90.6951 146.926 90.6321 146.863 90.5849C146.801 90.5377 146.727 90.5079 146.649 90.4986C146.626 90.493 146.605 90.4829 146.586 90.469C146.567 90.4551 146.551 90.4376 146.539 90.4175C146.527 90.3975 146.519 90.3752 146.516 90.352C146.513 90.3289 146.514 90.3053 146.52 90.2826C146.524 90.2597 146.533 90.238 146.546 90.2188C146.56 90.1997 146.577 90.1835 146.597 90.1713C146.617 90.1591 146.639 90.1512 146.662 90.148C146.685 90.1449 146.708 90.1466 146.731 90.153C146.866 90.1726 146.993 90.2273 147.1 90.3115C147.207 90.3957 147.29 90.5066 147.34 90.633C147.537 91.2042 147.057 92.073 146.721 92.553C146.894 92.5118 147.075 92.5135 147.247 92.5578C147.419 92.6021 147.578 92.6878 147.71 92.8074C148.238 93.3546 147.984 94.5114 147.825 95.0538C148.059 95.0258 148.297 95.0477 148.522 95.118C148.747 95.1883 148.954 95.3055 149.131 95.4618C149.846 96.1146 149.923 97.3818 149.913 97.9626C150.063 97.892 150.227 97.8554 150.393 97.8554C150.559 97.8554 150.723 97.892 150.873 97.9626C151.78 98.361 152.409 99.777 152.5 100.924C152.502 100.947 152.5 100.971 152.492 100.993C152.485 101.015 152.474 101.035 152.458 101.052C152.443 101.07 152.425 101.084 152.404 101.094C152.383 101.104 152.36 101.11 152.337 101.111L152.323 101.155Z" fill="#FAFAFA"/>
<path d="M162.661 79.3149C162.638 79.06 162.548 78.8158 162.399 78.6075C162.251 78.3991 162.049 78.234 161.816 78.1293L133.203 61.6077C132.567 61.2859 131.864 61.1182 131.151 61.1182C130.438 61.1182 129.735 61.2859 129.099 61.6077L85.0929 87.0189C84.8594 87.1236 84.6581 87.2887 84.5096 87.4971C84.3611 87.7054 84.2708 87.9496 84.248 88.2045V90.4269C84.2708 90.6817 84.3611 90.9259 84.5096 91.1343C84.6581 91.3427 84.8594 91.5077 85.0929 91.6125L113.706 108.129C114.341 108.453 115.044 108.622 115.758 108.622C116.471 108.622 117.174 108.453 117.81 108.129L161.816 82.7229C162.049 82.6181 162.251 82.4531 162.399 82.2447C162.548 82.0363 162.638 81.7921 162.661 81.5373V79.3149Z" fill="#37474F"/>
<path d="M113.707 105.907L85.0937 89.3901C83.9609 88.7325 83.9609 87.6717 85.0937 87.0189L129.1 61.6077C129.736 61.2859 130.439 61.1182 131.152 61.1182C131.865 61.1182 132.568 61.2859 133.204 61.6077L161.817 78.1293C162.955 78.7869 162.955 79.8429 161.817 80.5005L117.811 105.907C117.175 106.231 116.472 106.4 115.759 106.4C115.045 106.4 114.342 106.231 113.707 105.907Z" fill="#455A64"/>
<path opacity="0.1" d="M156.172 85.9775L142.703 102.648L119.61 115.982L119.605 107.093L156.172 85.9775Z" fill="black"/>
<path opacity="0.1" d="M154.246 111.533L142.702 127.09L119.609 140.429V131.535L154.246 111.533Z" fill="black"/>
<path opacity="0.1" d="M154.246 135.979L142.702 151.536L119.609 164.875V155.981L154.246 135.979Z" fill="black"/>
<path d="M101.274 184.531L65.8688 204.974L26 181.9L61.4048 161.462L101.274 184.531Z" fill="#03BF8C"/>
<path opacity="0.5" d="M101.274 184.531L65.8688 204.974L26 181.9L61.4048 161.462L101.274 184.531Z" fill="black"/>
<path d="M61.4048 133.752V161.462L26 181.901V154.195L61.4048 133.752Z" fill="#03BF8C"/>
<path opacity="0.23" d="M61.4048 133.752V161.462L26 181.901V154.195L61.4048 133.752Z" fill="black"/>
<path d="M65.8688 177.264V204.975L26 181.901V154.195L65.8688 177.264Z" fill="#03BF8C"/>
<path opacity="0.38" d="M65.8688 177.264V204.975L26 181.901V154.195L65.8688 177.264Z" fill="black"/>
<path d="M101.275 156.821V184.531L61.4062 161.462V133.752L101.275 156.821Z" fill="#03BF8C"/>
<path opacity="0.4" d="M101.275 156.821V184.531L61.4062 161.462V133.752L101.275 156.821Z" fill="black"/>
<path d="M101.274 184.531V156.82L65.8691 177.264V204.974L101.274 184.531Z" fill="#03BF8C"/>
<path opacity="0.23" d="M101.274 184.531V156.82L65.8691 177.264V204.974L101.274 184.531Z" fill="black"/>
<path d="M61.4062 133.752L61.4542 118.411L101.227 141.509L101.275 156.821L61.4062 133.752Z" fill="#03BF8C"/>
<path opacity="0.2" d="M61.4062 133.752L61.4542 118.411L101.227 141.509L101.275 156.821L61.4062 133.752Z" fill="black"/>
<path d="M65.8691 177.264L69.1907 163.843L104.274 143.587L101.274 156.821L65.8691 177.264Z" fill="#03BF8C"/>
<path opacity="0.3" d="M65.8691 177.264L69.1907 163.843L104.274 143.587L101.274 156.821L65.8691 177.264Z" fill="black"/>
<path d="M26.0013 154.195L21.7773 140.275L57.1821 119.837L61.4061 133.752L26.0013 154.195Z" fill="#03BF8C"/>
<path opacity="0.1" d="M26.0013 154.195L21.7773 140.275L57.1821 119.837L61.4061 133.752L26.0013 154.195Z" fill="black"/>
<path d="M26.0008 154.195L17.668 142.689L57.5416 165.758L65.8696 177.264L26.0008 154.195Z" fill="#03BF8C"/>
<path opacity="0.45" d="M26.0008 154.195L17.668 142.689L57.5416 165.758L65.8696 177.264L26.0008 154.195Z" fill="black"/>
<g opacity="0.7">
<path d="M76.295 196.732C76.2373 196.732 76.1818 196.71 76.1406 196.669C76.0993 196.629 76.0755 196.574 76.0742 196.516V191.639C76.0754 191.581 76.0991 191.526 76.1402 191.485C76.1814 191.444 76.2368 191.42 76.295 191.419C76.3527 191.42 76.4077 191.444 76.4481 191.485C76.4884 191.526 76.511 191.582 76.511 191.639V196.516C76.511 196.574 76.4883 196.629 76.4478 196.669C76.4072 196.71 76.3523 196.732 76.295 196.732Z" fill="white"/>
<path d="M75.6569 193.329C75.6283 193.334 75.5992 193.334 75.5705 193.329C75.5181 193.305 75.477 193.262 75.4556 193.208C75.4342 193.155 75.4341 193.095 75.4553 193.041L76.2329 191.251L77.0969 192.249C77.1279 192.294 77.1412 192.348 77.1344 192.402C77.1277 192.456 77.1012 192.506 77.0602 192.541C77.0192 192.577 76.9665 192.596 76.9122 192.596C76.8578 192.595 76.8057 192.574 76.7657 192.537L76.3577 192.057L75.8777 193.209C75.857 193.249 75.8249 193.281 75.7856 193.303C75.7463 193.324 75.7015 193.333 75.6569 193.329Z" fill="white"/>
<path d="M78.3058 195.586C78.2481 195.585 78.1932 195.561 78.1528 195.52C78.1124 195.478 78.0898 195.423 78.0898 195.365V190.493C78.0898 190.436 78.1126 190.381 78.1531 190.34C78.1936 190.3 78.2486 190.277 78.3058 190.277C78.3631 190.277 78.4181 190.3 78.4586 190.34C78.4991 190.381 78.5218 190.436 78.5218 190.493V195.36C78.5225 195.389 78.5174 195.418 78.5069 195.445C78.4964 195.472 78.4806 195.497 78.4606 195.518C78.4405 195.539 78.4165 195.556 78.39 195.567C78.3634 195.579 78.3348 195.585 78.3058 195.586Z" fill="white"/>
<path d="M77.6676 192.182C77.6389 192.187 77.6098 192.187 77.5812 192.182C77.5548 192.171 77.531 192.154 77.5111 192.133C77.4913 192.113 77.4758 192.088 77.4655 192.061C77.4552 192.035 77.4504 192.006 77.4513 191.977C77.4522 191.949 77.4588 191.92 77.4708 191.894L78.2436 190.08L79.1076 191.073C79.1474 191.115 79.1697 191.17 79.1697 191.227C79.1697 191.284 79.1474 191.339 79.1076 191.381C79.0875 191.401 79.0635 191.417 79.0372 191.428C79.0108 191.439 78.9825 191.445 78.954 191.445C78.9254 191.445 78.8971 191.439 78.8707 191.428C78.8444 191.417 78.8204 191.401 78.8004 191.381L78.3924 190.901L77.9124 192.053C77.8925 192.099 77.8573 192.137 77.8128 192.161C77.7683 192.184 77.717 192.192 77.6676 192.182Z" fill="white"/>
</g>
<g opacity="0.7">
<path d="M70.4927 200.04C70.4106 200.042 70.3296 200.022 70.2575 199.983C70.1707 199.927 70.1004 199.849 70.0539 199.757C70.0075 199.665 69.9866 199.562 69.9935 199.46V198.86C69.9947 198.802 70.0185 198.747 70.0598 198.707C70.1011 198.666 70.1565 198.644 70.2143 198.644C70.2715 198.644 70.3265 198.666 70.367 198.707C70.4075 198.747 70.4303 198.802 70.4303 198.86V199.46C70.4303 199.546 70.4303 199.594 70.4735 199.604C70.5167 199.613 70.5407 199.604 70.6127 199.565C70.7477 199.44 70.8542 199.288 70.9246 199.118C70.9951 198.948 71.0278 198.765 71.0207 198.581V196.085C71.0207 196.028 71.0434 195.973 71.0839 195.932C71.1244 195.892 71.1794 195.869 71.2367 195.869C71.2939 195.869 71.3489 195.892 71.3894 195.932C71.4299 195.973 71.4527 196.028 71.4527 196.085V198.581C71.4634 198.84 71.4129 199.098 71.3053 199.334C71.1978 199.57 71.0361 199.778 70.8335 199.94C70.7309 200.003 70.6132 200.038 70.4927 200.04Z" fill="white"/>
<path d="M68.2031 198.029V197.655C68.2602 196.693 68.5412 195.759 69.0237 194.925C69.5063 194.092 70.177 193.383 70.9823 192.855C71.7695 192.404 72.5183 192.336 73.0943 192.672C73.4015 192.883 73.6465 193.172 73.8036 193.51C73.9606 193.848 74.024 194.222 73.9871 194.592V194.717L68.2031 198.029ZM72.2879 192.874C71.9036 192.892 71.5302 193.007 71.2031 193.21C70.513 193.664 69.9287 194.261 69.4897 194.961C69.0508 195.661 68.7675 196.447 68.6591 197.266L73.5407 194.444C73.5616 194.166 73.5102 193.887 73.3916 193.635C73.273 193.382 73.0913 193.165 72.8639 193.004C72.6866 192.911 72.488 192.866 72.2879 192.874Z" fill="white"/>
</g>
<path opacity="0.7" d="M17.668 142.689L57.5416 165.758L65.8696 177.264L57.1 166.166L17.668 142.689Z" fill="white"/>
<path opacity="0.7" d="M101.274 156.82L65.8691 177.264V204.974L66.5315 177.82L101.274 156.82Z" fill="white"/>
<path d="M49.3193 145.738C52.9721 145.21 56.3081 142.858 58.4393 139.901C59.4332 138.519 60.1653 136.967 60.5993 135.322C61.0602 133.783 61.136 132.154 60.8201 130.579C60.1625 127.944 57.7241 126.384 55.1465 126.058C53.8385 125.886 52.5086 126.015 51.2585 126.437C49.9623 126.882 48.8378 127.721 48.0425 128.837C47.5438 129.431 47.2301 130.159 47.1401 130.93C47.1324 131.232 47.2389 131.525 47.4382 131.752C47.6375 131.979 47.915 132.122 48.2153 132.154C48.9882 132.219 49.7606 132.023 50.4089 131.597C51.1994 131.154 51.8957 130.56 52.4585 129.85C53.6658 128.36 54.5693 126.647 55.1177 124.81C55.5025 123.233 55.5025 121.587 55.1177 120.01C54.8254 118.36 54.0714 116.827 52.9433 115.589C51.65 114.413 50.0088 113.69 48.2681 113.53C46.5356 113.292 44.7716 113.456 43.1129 114.01C42.3843 114.231 41.7093 114.6 41.1305 115.094C40.7177 115.478 40.2473 116.112 40.4153 116.736C40.5833 117.36 41.4953 117.638 42.1145 117.557C43.0309 117.385 43.8704 116.93 44.5145 116.256C45.2324 115.549 45.8421 114.741 46.3241 113.856C46.6822 113.22 46.8691 112.503 46.8665 111.773C46.8041 108.73 43.4393 106.762 40.8041 106.205C40.0927 106.056 39.3641 106.008 38.6393 106.061C38.3945 106.061 38.5433 106.464 38.7401 106.45C40.1582 106.385 41.5674 106.704 42.8201 107.371C44.056 107.939 45.094 108.864 45.8009 110.026C46.1159 110.599 46.2715 111.246 46.2512 111.899C46.2309 112.553 46.0356 113.189 45.6857 113.741C45.2157 114.559 44.6305 115.306 43.9481 115.958C43.3769 116.477 42.5081 117.077 41.7065 117.019C41.5742 117.019 41.4446 116.981 41.3325 116.911C41.2205 116.841 41.1305 116.74 41.0729 116.621C41.0487 116.463 41.0617 116.302 41.1109 116.15C41.1601 115.999 41.244 115.861 41.3561 115.747C41.78 115.291 42.3042 114.939 42.8873 114.72C44.3273 114.121 45.8866 113.865 47.4425 113.971C49.0459 114 50.6053 114.501 51.9257 115.411C53.076 116.366 53.8929 117.662 54.2585 119.112C54.7216 120.585 54.8656 122.139 54.6809 123.672C54.3958 125.214 53.8033 126.684 52.9385 127.992C52.0505 129.461 50.9369 130.872 49.2665 131.448C48.8537 131.597 47.9897 131.813 47.8265 131.213C47.6633 130.613 48.1337 129.874 48.4361 129.408C49.1048 128.356 50.0797 127.533 51.2297 127.051C52.3394 126.606 53.5373 126.426 54.7289 126.523C56.9897 126.691 59.2841 127.872 60.0713 130.118C60.4662 131.461 60.5092 132.883 60.1961 134.246C59.9137 135.742 59.3763 137.177 58.6073 138.49C56.9532 141.279 54.4481 143.465 51.4601 144.725C50.7497 145.032 50.0201 145.291 49.2761 145.531C49.1993 145.56 49.2329 145.752 49.3193 145.738Z" fill="#E0E0E0"/>
<path d="M34.0605 104.064C32.1405 103.925 29.4957 105.437 30.4365 106.541C31.3773 107.645 33.8733 105.86 33.8733 105.86C33.8733 105.86 33.6381 108.092 34.4541 108.346C35.2701 108.6 36.3741 106.469 35.5581 105.106C35.9516 105.261 36.378 105.314 36.7975 105.261C37.2171 105.207 37.6163 105.048 37.9581 104.799C39.1197 103.944 37.8909 103.138 36.2541 103.282C36.2541 103.282 37.4253 99.442 35.0589 100.176C33.8733 100.536 33.4557 101.924 34.0605 104.064Z" fill="#03BF8C"/>
<path opacity="0.65" d="M34.0605 104.064C32.1405 103.925 29.4957 105.437 30.4365 106.541C31.3773 107.645 33.8733 105.86 33.8733 105.86C33.8733 105.86 33.6381 108.092 34.4541 108.346C35.2701 108.6 36.3741 106.469 35.5581 105.106C35.9516 105.261 36.378 105.314 36.7975 105.261C37.2171 105.207 37.6163 105.048 37.9581 104.799C39.1197 103.944 37.8909 103.138 36.2541 103.282C36.2541 103.282 37.4253 99.442 35.0589 100.176C33.8733 100.536 33.4557 101.924 34.0605 104.064Z" fill="white"/>
<path d="M35.8464 104.88C35.7401 104.776 35.6279 104.678 35.5104 104.587C35.3424 104.458 35.1648 104.333 34.9968 104.208C34.8332 104.089 34.6616 103.982 34.4832 103.886C34.3805 103.829 34.2747 103.778 34.1664 103.733C34.0168 103.662 33.8504 103.636 33.6864 103.656C33.6434 103.657 33.6015 103.67 33.5651 103.693C33.5287 103.716 33.4992 103.748 33.4796 103.786C33.4599 103.825 33.451 103.867 33.4536 103.91C33.4562 103.953 33.4703 103.995 33.4944 104.03C33.6263 104.173 33.791 104.282 33.9744 104.347L34.2336 104.486C34.4112 104.592 34.5696 104.712 34.7136 104.832C34.8576 104.952 35.0496 105.067 35.1936 105.187C35.4412 105.388 35.7179 105.55 36.0144 105.667C36.0276 105.674 36.0425 105.678 36.0576 105.678C36.0726 105.678 36.0875 105.674 36.1008 105.667C36.3456 105.475 35.9856 105.019 35.8464 104.88Z" fill="#455A64"/>
<path d="M188.874 51.2595C186.776 54.0819 183.968 69.6003 182.907 74.5779C177.805 74.4291 170.979 74.1891 168.397 73.9203C165.517 73.6179 159.368 73.0275 156.349 73.4403C148.856 74.4003 149.149 79.3251 149.331 80.6115C149.528 82.0803 150.579 82.7523 154.611 81.8355C155.514 81.6372 156.433 81.5295 157.357 81.5139C157.746 81.5139 158.567 81.3171 158.874 81.6483C159.354 82.1283 157.967 82.9347 157.621 83.1555C157.088 83.5011 156.531 83.9379 156.421 84.5619C156.389 84.676 156.391 84.7967 156.426 84.9099C156.461 85.023 156.527 85.1238 156.618 85.2003C156.813 85.28 157.032 85.28 157.227 85.2003C159.068 84.7635 160.843 84.0874 162.507 83.1891C163.135 82.8107 163.795 82.4894 164.48 82.2291C165.522 81.8931 166.597 82.0899 167.643 82.0899C169.895 82.0899 181.794 83.2707 187.083 83.8083C190.746 84.1779 191.135 80.5635 192.397 76.9011C193.947 72.3603 197.619 48.4803 197.619 48.4803C193.914 47.9427 191.37 47.9091 188.874 51.2595Z" fill="#FFA8A7"/>
<path d="M197.677 48.1056C195.905 47.7792 191.917 47.2848 189.747 49.7088C187.577 52.1328 187.064 54.6768 186.109 58.3488C185.153 62.0208 183.459 68.5968 183.459 68.5968C183.459 68.5968 186.257 72.6144 195.017 71.4768L197.677 48.1056Z" fill="#37474F"/>
<path d="M219.676 175.028L213.517 175.033L211.746 161.665L219.517 161.357L219.676 175.028Z" fill="#FFA8A7"/>
<path d="M199.227 168.351C198.18 170.17 194.815 170.021 192.027 169.378L191.705 156.236L199.937 155.909L199.227 168.351Z" fill="#FFA8A7"/>
<path d="M219.258 90.5569C219.479 96.2449 218.725 129.878 218.725 129.878C218.932 131.51 220.621 134.357 220.972 140.246C221.485 148.8 219.743 167.04 219.743 167.04C219.743 167.04 216.215 168.883 212.413 167.472C212.413 167.472 208.544 141.072 207.133 132.634C205.914 125.29 204.349 105.59 204.349 105.59L201.311 130.838C201.868 133.827 202.098 136.867 201.997 139.906C201.872 143.832 199.636 162.898 199.636 162.898C197.084 163.732 194.343 163.798 191.754 163.085C191.754 163.085 189.92 133.498 189.709 129.912C189.469 125.822 189.632 89.7217 189.632 89.7217L219.258 90.5569Z" fill="#03BF8C"/>
<path opacity="0.2" d="M204.359 105.6C204.359 105.6 198.978 104.073 195.311 100.8C195.311 100.8 197.029 103.733 201.896 106.334L201.618 128.371L204.359 105.6Z" fill="black"/>
<path d="M206.498 186.177C206.302 186.379 206.417 187.709 206.657 188.054C206.897 188.4 208.366 189.571 210.914 189.657C213.348 189.734 215.498 189.321 216.886 188.361C218.273 187.401 218.926 186.379 219.007 185.001C219.089 183.624 218.882 182.285 219.487 181.195C220.058 180.192 220.985 179.045 221.172 178.502C221.59 177.326 221.081 175.689 221.081 175.689L206.498 186.177Z" fill="#263238"/>
<path d="M212.642 173.856C212.646 174.381 212.571 174.903 212.422 175.406C211.901 177.043 211.118 178.585 210.103 179.971C209.402 180.869 208.519 181.622 207.775 182.491C206.979 183.315 206.491 184.388 206.393 185.53C206.364 187.45 208.457 188.002 210.055 188.222C211.788 188.451 213.55 188.287 215.21 187.742C216.085 187.479 216.865 186.968 217.456 186.271C218.047 185.575 218.424 184.722 218.542 183.816C218.609 183.283 218.542 182.746 218.599 182.213C218.762 180.989 219.225 179.825 219.948 178.824C220.366 178.245 220.723 177.624 221.014 176.971C221.46 175.771 221.014 174.461 220.649 173.304C220.337 172.301 219.982 171.163 219.631 171.274C219.631 171.806 219.631 171.854 219.29 172.234C218.81 172.714 218.834 173.381 218.33 173.798C218.476 173.355 218.576 172.899 218.628 172.435C218.652 172.246 218.606 172.055 218.498 171.898C218.325 171.757 218.121 171.658 217.903 171.61C217.144 171.385 216.364 171.239 215.575 171.173C214.824 171.074 214.062 171.098 213.319 171.245C213.1 171.296 212.903 171.419 212.762 171.595C212.639 171.792 212.577 172.021 212.585 172.253C212.585 172.565 212.638 173.347 212.642 173.856Z" fill="#455A64"/>
<path d="M210.819 178.911C211.51 178.354 213.094 178.282 213.967 178.344C214.852 178.384 215.713 178.649 216.468 179.112C216.579 179.187 216.714 179.219 216.846 179.203C216.979 179.187 217.102 179.124 217.193 179.026C217.246 178.97 217.286 178.903 217.311 178.83C217.336 178.757 217.344 178.679 217.336 178.603C217.328 178.526 217.303 178.452 217.263 178.386C217.224 178.32 217.17 178.263 217.107 178.219C216.272 177.654 215.296 177.335 214.289 177.298C212.148 177.235 211.539 177.624 211.539 177.624C211.539 177.624 210.583 178.287 210.819 178.911Z" fill="#F5F5F5"/>
<path d="M209.264 180.926C210.132 180.365 211.884 180.369 212.753 180.446C213.624 180.501 214.465 180.785 215.192 181.267C215.302 181.341 215.436 181.373 215.568 181.357C215.7 181.341 215.822 181.279 215.912 181.181C215.966 181.125 216.007 181.059 216.032 180.986C216.058 180.913 216.067 180.835 216.059 180.758C216.052 180.681 216.027 180.607 215.987 180.541C215.948 180.474 215.894 180.418 215.83 180.374C214.982 179.779 213.984 179.434 212.95 179.376C210.804 179.309 210.267 179.765 210.267 179.765C210.023 179.87 209.806 180.03 209.633 180.231C209.459 180.432 209.333 180.67 209.264 180.926Z" fill="#F5F5F5"/>
<path d="M215.058 175.225C214.152 175.101 213.229 175.213 212.38 175.551C212.015 175.777 211.789 176.381 212.034 176.511C212.778 176.177 213.592 176.032 214.405 176.089C215.208 176.136 215.998 176.321 216.738 176.636C216.925 176.708 217.146 176.813 217.338 176.909C217.399 176.941 217.467 176.959 217.536 176.964C217.604 176.969 217.673 176.959 217.739 176.936C217.804 176.913 217.863 176.878 217.914 176.831C217.965 176.784 218.006 176.728 218.034 176.665C218.079 176.555 218.083 176.433 218.044 176.322C218.005 176.21 217.926 176.117 217.823 176.06C216.972 175.586 216.029 175.301 215.058 175.225Z" fill="#F5F5F5"/>
<path d="M177.955 176.549C177.737 177.098 177.737 177.709 177.955 178.258C178.166 178.771 180.71 180.365 184.243 180.298C186.87 180.234 189.432 179.468 191.663 178.08C193.051 177.254 194.457 177.154 196.204 177.12C197.951 177.086 200.284 176.342 200.707 175.546C201.129 174.749 200.755 173.323 200.755 173.323L177.955 176.549Z" fill="#263238"/>
<path d="M192.69 166.228L192.416 166.156C192.261 166.109 192.097 166.095 191.936 166.113C191.763 166.155 191.607 166.249 191.49 166.382C191.126 166.808 190.805 167.268 190.53 167.755C189.738 168.921 188.13 169.848 186.402 170.678C185.221 171.24 184.074 171.667 182.859 172.142C181.645 172.617 179.979 172.886 179.019 173.481C177.579 174.35 177.306 176.678 178.832 177.676C180.157 178.54 183.69 179.572 187.472 178.689C189.541 178.209 191.912 176.136 194.6 176.054C196.314 176.001 199.559 175.675 200.715 174.432C201.152 173.88 200.715 172.032 200.327 170.438C199.923 168.7 200.106 166.118 199.328 166.118L199.28 166.987C199.208 167.246 198.599 167.5 198.407 167.702L197.715 168.432C197.432 168.77 197.087 169.05 196.698 169.257C196.011 169.564 195.21 169.382 194.475 169.19C194.447 169.19 194.845 167.856 194.888 167.726C194.931 167.625 194.945 167.513 194.927 167.404C194.89 167.298 194.817 167.208 194.72 167.15C194.114 166.706 193.423 166.392 192.69 166.228Z" fill="#455A64"/>
<path d="M188.043 169.824C188.177 169.596 188.367 169.404 188.594 169.268C188.821 169.131 189.079 169.053 189.344 169.042C190.126 168.936 191.465 169.57 192.286 170.314C192.364 170.384 192.423 170.471 192.458 170.569C192.494 170.667 192.506 170.772 192.491 170.875C192.477 170.978 192.438 171.077 192.377 171.161C192.316 171.246 192.236 171.314 192.142 171.36C192.025 171.418 191.893 171.438 191.764 171.418C191.635 171.397 191.515 171.337 191.422 171.245C190.523 170.35 189.311 169.84 188.043 169.824Z" fill="#F5F5F5"/>
<path d="M185.576 171.058C185.756 170.828 185.989 170.644 186.254 170.523C186.52 170.402 186.811 170.347 187.103 170.362C187.103 170.362 189.128 170.515 190.323 171.744C190.397 171.812 190.454 171.896 190.488 171.99C190.522 172.084 190.533 172.184 190.52 172.283C190.506 172.382 190.469 172.477 190.412 172.558C190.354 172.64 190.278 172.706 190.189 172.752C190.076 172.807 189.948 172.826 189.824 172.807C189.699 172.787 189.584 172.729 189.493 172.642C189.001 172.1 188.394 171.677 187.715 171.403C187.037 171.128 186.306 171.011 185.576 171.058Z" fill="#F5F5F5"/>
<path d="M182.863 172.142C183.067 171.931 183.314 171.766 183.588 171.66C183.861 171.553 184.154 171.506 184.447 171.523C185.595 171.65 186.673 172.135 187.529 172.91C187.603 172.978 187.659 173.063 187.693 173.157C187.727 173.251 187.738 173.352 187.725 173.451C187.712 173.551 187.675 173.645 187.617 173.728C187.56 173.81 187.483 173.877 187.394 173.923C187.281 173.979 187.153 173.998 187.028 173.977C186.903 173.957 186.788 173.897 186.698 173.808C186.233 173.251 185.643 172.811 184.978 172.522C184.312 172.233 183.588 172.103 182.863 172.142Z" fill="#F5F5F5"/>
<path d="M207.938 48.2118C210.204 48.471 212.882 48.6102 215.047 48.8934C217.836 49.2582 220.01 52.143 220.692 56.607C221.441 61.5222 218.292 75.615 218.292 75.615L219.295 92.2326C215.21 95.2422 197.815 96.8214 189.146 90.5622C189.146 90.5622 189.348 62.2806 190.025 57.9222C190.956 51.9462 192.425 48.2358 199.145 47.8086L207.938 48.2118Z" fill="#455A64"/>
<path d="M223.43 84.2112C222.696 85.44 221.956 86.6688 221.198 87.8832C220.92 88.3344 220.636 88.7808 220.344 89.2224C220.185 89.4386 219.999 89.6337 219.792 89.8032C219.427 90.0528 218.668 89.8944 218.227 89.9088C216.057 89.9824 213.894 90.1424 211.737 90.3888C211.557 90.3832 211.377 90.4172 211.211 90.4886C211.045 90.5599 210.897 90.6668 210.777 90.8016C210.689 90.9875 210.671 91.1993 210.727 91.3973C210.784 91.5953 210.911 91.7658 211.084 91.8768C211.438 92.0889 211.839 92.2078 212.251 92.2224L214.123 92.4432C214.39 92.4522 214.649 92.5353 214.872 92.6832C215.553 93.2352 214.252 93.8976 213.864 94.1664C213.082 94.7096 212.247 95.1728 211.372 95.5488C207.47 97.1904 206.995 98.3808 207.715 99.7344C208.339 100.91 211.036 105.187 217.891 101.506C220.651 100.022 224.851 95.3376 226.766 93.072C229.521 89.8032 234.182 82.512 234.182 82.512C236.832 78.8736 237.172 77.3808 237.235 75.8688C237.297 74.3568 229.075 62.7264 226.281 58.6416C223.488 54.5568 222.158 49.5888 215.049 48.9072C215.049 48.9072 212.342 57.4896 216.825 63.0432L227.179 77.4864C227.179 77.4864 224.438 82.5264 223.43 84.2112Z" fill="#FFA8A7"/>
<path d="M230.941 64.1809C229.612 62.2609 228.224 60.2833 226.885 58.3249C221.245 50.0929 221.72 48.5857 213.589 48.4705C212.869 49.5745 212.442 54.3265 213.527 59.0977C214.434 63.1057 217.847 65.9329 217.847 65.9329L221.917 71.4481C221.917 71.4481 224.408 71.3713 227.394 69.1825C229.118 67.9746 230.372 66.2075 230.941 64.1809Z" fill="#37474F"/>
<path d="M213.302 26.578C212.893 25.9689 212.326 25.4821 211.663 25.1693C210.999 24.8566 210.263 24.7296 209.534 24.802L209.111 35.1076L208.42 38.914L208.54 43.1524C208.941 43.0957 209.321 42.9383 209.645 42.6949C209.969 42.4515 210.227 42.13 210.393 41.7604C211.026 40.5412 212.793 34.6468 212.793 34.6468C214.377 29.8036 214.041 27.6148 213.302 26.578Z" fill="#263238"/>
<path d="M208.63 35.1555C208.808 34.5291 209.151 33.9622 209.623 33.5139C210.214 32.8803 212.566 32.1939 213.636 34.1907C214.707 36.1875 212.902 38.8227 211.51 39.6291C209.729 40.6659 208.683 39.2547 208.683 39.2547L208.726 48.7443C207.895 50.6643 204.147 52.3731 201.915 52.1043C200.139 51.8787 198.502 50.4819 200.091 48.4467L199.961 45.7395C199.961 45.7395 197.585 46.2195 196.409 46.0995C194.455 45.8979 193.155 44.4243 192.463 42.3507C191.35 39.0195 190.855 36.3123 191.326 29.6307C191.844 22.3107 200.307 21.8163 205.025 24.4659C209.743 27.1155 208.63 35.1555 208.63 35.1555Z" fill="#FFA8A7"/>
<path d="M188.634 22.0274C188.418 20.429 188.97 18.7154 190.646 18.149C191.26 17.8918 191.935 17.8135 192.592 17.923C193.25 18.0326 193.863 18.3255 194.361 18.7682C194.571 18.2043 194.934 17.7101 195.409 17.3412C195.885 16.9724 196.454 16.7434 197.052 16.6801C197.65 16.6167 198.255 16.7216 198.797 16.9827C199.339 17.2439 199.797 17.6511 200.121 18.1586C200.566 17.4827 201.253 17.0034 202.041 16.8194C202.527 16.7109 203.029 16.7009 203.519 16.7899C204.009 16.879 204.476 17.0652 204.892 17.3378C205.574 17.8418 206.375 18.7778 206.174 19.9922C207.522 19.4498 208.929 19.901 209.932 21.0914C210.529 21.8203 210.867 22.7271 210.892 23.669C210.927 24.1582 210.856 24.6492 210.686 25.109C210.494 25.5458 210.1 25.8338 209.985 26.3282C209.817 26.7632 209.731 27.2252 209.73 27.6914C209.841 28.4978 210.018 29.3042 210.124 30.0914C210.238 30.8754 210.303 31.6657 210.321 32.4578C210.296 32.6441 210.231 32.8228 210.131 32.9818C210.031 33.1408 209.897 33.2764 209.74 33.3794C209.292 33.7713 208.945 34.2652 208.727 34.8194C208.559 35.165 208.396 36.0194 208.065 36.2594C207.042 36.9746 206.927 34.661 206.879 34.2146C206.813 33.19 206.813 32.1623 206.879 31.1378C206.364 31.1311 205.855 31.0166 205.386 30.8017C204.918 30.5868 204.499 30.2761 204.158 29.8898C203.803 29.4556 203.57 28.9357 203.481 28.3826C203.425 28.0656 203.4 27.7443 203.404 27.4226C202.737 28.5266 201.186 28.9778 200.082 28.8626C198.23 28.6946 197.591 27.9026 197.294 27.3218C197.176 27.8943 196.925 28.4306 196.559 28.8866C196.086 29.3313 195.516 29.66 194.894 29.8466C194.357 29.9898 193.792 29.9841 193.258 29.8302C192.724 29.6763 192.243 29.3799 191.865 28.973C191.111 30.053 189.201 29.573 188.778 29.2706C187.818 28.5746 187.506 27.7442 187.401 26.5586C187.295 25.373 187.775 24.0194 189.09 23.5538C188.853 23.0744 188.699 22.5583 188.634 22.0274Z" fill="#263238"/>
<path d="M199.961 45.7253C199.961 45.7253 204.252 44.6405 205.721 43.7573C206.59 43.2486 207.284 42.4889 207.713 41.5781C207.528 42.4766 207.164 43.3286 206.643 44.0837C205.606 45.5573 200.009 46.8821 200.009 46.8821L199.961 45.7253Z" fill="#F28F8F"/>
<path d="M200.201 34.8391C200.217 35.0209 200.286 35.1939 200.4 35.3367C200.514 35.4794 200.667 35.5856 200.841 35.642C201.014 35.6984 201.201 35.7026 201.377 35.6539C201.552 35.6053 201.71 35.506 201.83 35.3684C201.95 35.2308 202.027 35.061 202.051 34.8801C202.076 34.6992 202.046 34.5151 201.967 34.3508C201.887 34.1865 201.761 34.0492 201.604 33.9559C201.447 33.8627 201.266 33.8176 201.084 33.8263C200.834 33.8459 200.601 33.963 200.436 34.1524C200.271 34.3417 200.186 34.5882 200.201 34.8391Z" fill="#263238"/>
<path d="M198.766 41.7847C198.788 42.0188 198.879 42.2414 199.026 42.4247C199.173 42.608 199.371 42.7439 199.595 42.8156C199.819 42.8873 200.06 42.8915 200.286 42.8278C200.512 42.7642 200.715 42.6354 200.869 42.4574C201.023 42.2795 201.121 42.0603 201.151 41.827C201.181 41.5938 201.142 41.3568 201.039 41.1455C200.936 40.9342 200.773 40.7579 200.57 40.6386C200.367 40.5193 200.134 40.4621 199.899 40.4743C199.576 40.5 199.276 40.652 199.064 40.8972C198.852 41.1424 198.745 41.4612 198.766 41.7847Z" fill="#F28F8F"/>
<path d="M200.975 31.6418L202.952 32.6018C203.075 32.3307 203.09 32.0227 202.992 31.7414C202.895 31.46 202.693 31.2267 202.429 31.0898C202.298 31.0271 202.155 30.9916 202.01 30.9856C201.865 30.9795 201.72 31.003 201.584 31.0546C201.448 31.1062 201.324 31.1848 201.219 31.2858C201.114 31.3867 201.031 31.5078 200.975 31.6418Z" fill="#263238"/>
<path d="M192.372 32.4726L194.057 31.0326C193.969 30.9177 193.859 30.822 193.733 30.7514C193.607 30.6807 193.467 30.6366 193.323 30.6218C193.18 30.607 193.034 30.6217 192.896 30.6651C192.758 30.7085 192.631 30.7797 192.521 30.8742C192.296 31.0709 192.156 31.3463 192.128 31.6437C192.1 31.9411 192.188 32.2378 192.372 32.4726Z" fill="#263238"/>
<path d="M192.876 34.6516C192.888 34.8292 192.952 34.9993 193.06 35.1407C193.168 35.2821 193.315 35.3884 193.483 35.4462C193.652 35.5041 193.833 35.5109 194.005 35.4658C194.177 35.4207 194.332 35.3257 194.451 35.1928C194.569 35.0599 194.645 34.8949 194.67 34.7187C194.695 34.5425 194.667 34.3629 194.59 34.2025C194.513 34.0421 194.391 33.908 194.238 33.8171C194.085 33.7262 193.908 33.6825 193.731 33.6916C193.491 33.7077 193.267 33.8173 193.107 33.9968C192.947 34.1764 192.864 34.4115 192.876 34.6516Z" fill="#263238"/>
<path d="M197.33 33.5859L197.302 39.2643L194.297 38.4003L197.33 33.5859Z" fill="#F28F8F"/>
<path d="M189.791 41.5296C189.819 41.5234 189.845 41.5117 189.868 41.4952C189.891 41.4787 189.911 41.4578 189.925 41.4336C189.942 41.4098 189.954 41.3829 189.961 41.3544C189.967 41.3259 189.968 41.2963 189.962 41.2676C189.957 41.2389 189.946 41.2116 189.929 41.1873C189.913 41.163 189.892 41.1423 189.868 41.1264L187.257 39.3888C187.232 39.3726 187.205 39.3613 187.176 39.3557C187.148 39.3501 187.118 39.3502 187.09 39.356C187.061 39.3618 187.034 39.3732 187.01 39.3895C186.986 39.4058 186.965 39.4268 186.949 39.4512C186.932 39.4752 186.921 39.5024 186.915 39.5311C186.909 39.5598 186.909 39.5894 186.914 39.6182C186.92 39.6469 186.932 39.6742 186.949 39.6983C186.965 39.7224 186.987 39.7428 187.012 39.7584L189.618 41.496C189.643 41.5139 189.671 41.5263 189.701 41.5321C189.731 41.5379 189.761 41.537 189.791 41.5296Z" fill="#E0E0E0"/>
<path d="M189.513 42.653C189.553 42.6429 189.59 42.6219 189.62 42.5923C189.65 42.5627 189.67 42.5256 189.681 42.485C189.694 42.4271 189.683 42.3664 189.652 42.3161C189.62 42.2658 189.57 42.2299 189.513 42.2162L186.46 41.5106C186.431 41.5035 186.402 41.502 186.373 41.5064C186.344 41.5107 186.316 41.5208 186.291 41.536C186.266 41.5512 186.245 41.5712 186.227 41.5948C186.21 41.6185 186.198 41.6453 186.191 41.6738C186.178 41.7317 186.188 41.7924 186.22 41.8427C186.251 41.893 186.301 41.9289 186.359 41.9426L189.412 42.653C189.445 42.6578 189.479 42.6578 189.513 42.653Z" fill="#E0E0E0"/>
<path d="M186.676 44.6832H186.705L189.647 43.608C189.702 43.5877 189.748 43.5461 189.772 43.4926C189.797 43.439 189.799 43.3778 189.779 43.3224C189.759 43.2671 189.717 43.222 189.664 43.1973C189.61 43.1725 189.549 43.1701 189.494 43.1904L186.551 44.2656C186.523 44.2758 186.498 44.2913 186.477 44.3113C186.455 44.3314 186.438 44.3555 186.426 44.3824C186.414 44.4092 186.407 44.4382 186.406 44.4676C186.406 44.497 186.411 44.5262 186.422 44.5536C186.442 44.6019 186.478 44.6413 186.525 44.6651C186.572 44.6888 186.625 44.6952 186.676 44.6832Z" fill="#E0E0E0"/>
<path d="M161.782 67.7086C161.843 67.8304 161.938 67.9317 162.056 68.0001C162.173 68.0684 162.309 68.1007 162.444 68.0931C162.58 68.0854 162.711 68.0381 162.82 67.957C162.929 67.8758 163.012 67.7645 163.059 67.6366L165.248 62.2366C165.283 62.1501 165.301 62.0572 165.3 61.9636C165.299 61.8701 165.279 61.7777 165.241 61.6921C165.203 61.6064 165.149 61.5292 165.081 61.4652C165.012 61.4011 164.932 61.3514 164.844 61.3191C164.756 61.2868 164.663 61.2726 164.569 61.2772C164.476 61.2819 164.384 61.3053 164.3 61.3462C164.216 61.387 164.141 61.4444 164.079 61.5149C164.018 61.5855 163.971 61.6677 163.942 61.7566L161.749 67.1566C161.716 67.2461 161.703 67.3412 161.708 67.4361C161.714 67.531 161.739 67.6238 161.782 67.7086Z" fill="#E0E0E0"/>
<path d="M158.178 67.6799C158.248 67.8214 158.364 67.935 158.507 68.002C158.65 68.0689 158.811 68.0854 158.965 68.0485C159.118 68.0117 159.255 67.9238 159.352 67.7993C159.448 67.6747 159.5 67.5209 159.498 67.3631L159.426 60.6431C159.412 60.4691 159.332 60.3069 159.204 60.1887C159.075 60.0705 158.907 60.0049 158.733 60.0049C158.558 60.0049 158.39 60.0705 158.261 60.1887C158.133 60.3069 158.054 60.4691 158.039 60.6431L158.106 67.3631C158.105 67.4729 158.13 67.5815 158.178 67.6799Z" fill="#E0E0E0"/>
<path d="M152.067 63.9406L152.111 64.0222L155.418 68.8222C155.52 68.9742 155.679 69.0796 155.858 69.1155C156.038 69.1515 156.225 69.115 156.378 69.0142C156.527 68.9094 156.63 68.7509 156.665 68.5719C156.7 68.3929 156.664 68.2074 156.565 68.0542L153.258 63.2542C153.161 63.1053 153.012 62.9991 152.839 62.9577C152.667 62.9162 152.485 62.9426 152.331 63.0313C152.178 63.1201 152.064 63.2645 152.014 63.4346C151.964 63.6048 151.982 63.7876 152.063 63.9454L152.067 63.9406Z" fill="#E0E0E0"/>
</g>
<defs>
<filter id="filter0_d_42_3497" x="0.5" y="-1.5" width="244" height="244" filterUnits="userSpaceOnUse" color-interpolation-filters="sRGB">
<feFlood flood-opacity="0" result="BackgroundImageFix"/>
<feColorMatrix in="SourceAlpha" type="matrix" values="0 0 0 0 0 0 0 0 0 0 0 0 0 0 0 0 0 0 127 0" result="hardAlpha"/>
<feOffset dy="0.5"/>
<feGaussianBlur stdDeviation="1"/>
<feComposite in2="hardAlpha" operator="out"/>
<feColorMatrix type="matrix" values="0 0 0 0 0 0 0 0 0 0 0 0 0 0 0 0 0 0 0.25 0"/>
<feBlend mode="normal" in2="BackgroundImageFix" result="effect1_dropShadow_42_3497"/>
<feBlend mode="normal" in="SourceGraphic" in2="effect1_dropShadow_42_3497" result="shape"/>
</filter>
</defs>
</svg>
