<svg width="104" height="104" viewBox="0 0 104 104" fill="none" xmlns="http://www.w3.org/2000/svg">
<rect width="104" height="104" rx="52" fill="#E94964" fill-opacity="0.1"/>
<path fill-rule="evenodd" clip-rule="evenodd" d="M28.6668 28.6665H40.4516C41.2604 23.0127 46.1227 18.6665 52.0002 18.6665C57.8776 18.6665 62.74 23.0127 63.5487 28.6665H75.3335C77.1744 28.6665 78.6668 30.1589 78.6668 31.9998C78.6668 33.8408 77.1744 35.3332 75.3335 35.3332H28.6668C26.8259 35.3332 25.3335 33.8408 25.3335 31.9998C25.3335 30.1589 26.8259 28.6665 28.6668 28.6665ZM52.0002 25.3332C54.1772 25.3332 56.0293 26.7245 56.7157 28.6665H47.2847C47.9711 26.7245 49.8231 25.3332 52.0002 25.3332Z" fill="#E94964"/>
<path fill-rule="evenodd" clip-rule="evenodd" d="M71.4902 38.6665H32.5102C30.4817 38.6665 28.9235 40.4631 29.2104 42.4712L34.107 76.7474C34.8108 81.6739 39.03 85.3332 44.0065 85.3332H59.9939C64.9704 85.3332 69.1896 81.6739 69.8934 76.7474L74.79 42.4712C75.0769 40.4631 73.5187 38.6665 71.4902 38.6665ZM45.3335 48.6665C47.1745 48.6665 48.6669 50.1589 48.6669 51.9998V71.9998C48.6669 73.8408 47.1745 75.3332 45.3335 75.3332C43.4926 75.3332 42.0002 73.8408 42.0002 71.9998V51.9998C42.0002 50.1589 43.4926 48.6665 45.3335 48.6665ZM58.6669 48.6665C60.5078 48.6665 62.0002 50.1589 62.0002 51.9998V71.9998C62.0002 73.8408 60.5078 75.3332 58.6669 75.3332C56.8259 75.3332 55.3335 73.8408 55.3335 71.9998V51.9998C55.3335 50.1589 56.8259 48.6665 58.6669 48.6665Z" fill="#E94964"/>
</svg>
