<svg width="28" height="28" viewBox="0 0 28 28" fill="none" xmlns="http://www.w3.org/2000/svg">
<path fill-rule="evenodd" clip-rule="evenodd" d="M14 0.666667C21.3638 0.666667 27.3333 6.6362 27.3333 14C27.3333 18.9352 24.652 23.2442 20.6667 25.5496C18.7055 26.684 16.4286 27.3333 14 27.3333C11.5714 27.3333 9.29449 26.684 7.33334 25.5496C3.348 23.2442 0.666672 18.9352 0.666672 14C0.666672 6.6362 6.63621 0.666667 14 0.666667ZM14.0003 14.6667C16.2095 14.6667 18.0003 12.8758 18.0003 10.6667C18.0003 8.45753 16.2095 6.66667 14.0003 6.66667C11.7912 6.66667 10.0003 8.45753 10.0003 10.6667C10.0003 12.8758 11.7912 14.6667 14.0003 14.6667ZM15.3336 17.3333C18.0503 17.3333 20.2925 19.3644 20.6246 21.9909C20.6518 22.2061 20.5569 22.4174 20.3832 22.5473C20.0475 22.7984 19.6965 23.0303 19.3317 23.2413C17.7655 24.1473 15.9476 24.6667 14.0003 24.6667C12.053 24.6667 10.2351 24.1473 8.66892 23.2413C8.30413 23.0303 7.9531 22.7984 7.61743 22.5473C7.44372 22.4174 7.34884 22.2061 7.37605 21.9909C7.70814 19.3644 9.95036 17.3333 12.667 17.3333H15.3336Z" fill="#3A3361"/>
</svg>
