<svg width="18" height="18" viewBox="0 0 18 18" fill="none" xmlns="http://www.w3.org/2000/svg">
<path fill-rule="evenodd" clip-rule="evenodd" d="M9.00008 17.3332C4.39771 17.3332 0.666748 13.6022 0.666748 8.99984C0.666748 4.39746 4.39771 0.666504 9.00008 0.666504C13.6025 0.666504 17.3334 4.39746 17.3334 8.99984C17.3334 13.6022 13.6025 17.3332 9.00008 17.3332ZM9.83342 4.83317C9.83342 5.29341 9.46032 5.6665 9.00008 5.6665C8.53984 5.6665 8.16675 5.29341 8.16675 4.83317C8.16675 4.37293 8.53984 3.99984 9.00008 3.99984C9.46032 3.99984 9.83342 4.37293 9.83342 4.83317ZM9.00008 7.33317C9.46032 7.33317 9.83342 7.70627 9.83342 8.1665V13.1665C9.83342 13.6267 9.46032 13.9998 9.00008 13.9998C8.53984 13.9998 8.16675 13.6267 8.16675 13.1665V8.1665C8.16675 7.70627 8.53984 7.33317 9.00008 7.33317Z" fill="#2D7AD2"/>
</svg>
