<svg width="20" height="20" viewBox="0 0 20 20" fill="none" xmlns="http://www.w3.org/2000/svg">
<path d="M6.66683 4.16667C6.66683 6.00761 8.15921 7.5 10.0002 7.5C11.8411 7.5 13.3335 6.00761 13.3335 4.16667C13.3335 2.32572 11.8411 0.833332 10.0002 0.833332C8.15921 0.833332 6.66683 2.32572 6.66683 4.16667Z" fill="#03BF8C"/>
<path d="M10.0002 9.16663C9.79934 9.16663 9.60089 9.15648 9.40529 9.13667C9.27914 9.12389 9.16683 9.22101 9.16683 9.34781V15C9.16683 15.4602 9.53993 15.8333 10.0002 15.8333C10.4604 15.8333 10.8335 15.4602 10.8335 15V9.34781C10.8335 9.22101 10.7212 9.12389 10.595 9.13667C10.3994 9.15648 10.201 9.16663 10.0002 9.16663Z" fill="#03BF8C"/>
<path d="M7.48772 11.8006C7.56695 12.254 7.26366 12.6857 6.81029 12.765C5.40016 13.0114 4.25735 13.408 3.49163 13.8671C2.68832 14.3487 2.50016 14.766 2.50016 15C2.50016 15.1573 2.57641 15.3914 2.89429 15.6921C3.21394 15.9943 3.72118 16.305 4.4171 16.5833C5.8043 17.1382 7.77785 17.5 10.0002 17.5C12.2225 17.5 14.196 17.1382 15.5832 16.5833C16.2791 16.305 16.7864 15.9943 17.106 15.6921C17.4239 15.3914 17.5002 15.1573 17.5002 15C17.5002 14.766 17.312 14.3487 16.5087 13.8671C15.743 13.408 14.6002 13.0114 13.19 12.765C12.7367 12.6857 12.4334 12.254 12.5126 11.8006C12.5918 11.3472 13.0236 11.0439 13.477 11.1232C15.01 11.3911 16.3672 11.839 17.3657 12.4376C18.3266 13.0137 19.1668 13.8672 19.1668 15C19.1668 15.7632 18.7767 16.406 18.2512 16.903C17.7275 17.3983 17.0143 17.8059 16.2022 18.1308C14.5733 18.7823 12.3802 19.1667 10.0002 19.1667C7.6201 19.1667 5.42698 18.7823 3.79811 18.1308C2.98599 17.8059 2.27285 17.3983 1.74911 16.903C1.22362 16.406 0.833496 15.7632 0.833496 15C0.833496 13.8672 1.67375 13.0137 2.63465 12.4376C3.63313 11.839 4.99033 11.3911 6.52336 11.1232C6.97673 11.0439 7.40849 11.3472 7.48772 11.8006Z" fill="#03BF8C"/>
</svg>
