<svg width="85" height="85" viewBox="0 0 85 85" fill="none" xmlns="http://www.w3.org/2000/svg">
<circle cx="42.5" cy="42.5" r="42.5" fill="#F0FFFB"/>
<path d="M36.3612 31.7568C36.3612 35.1472 39.1097 37.8957 42.5001 37.8957C45.8905 37.8957 48.639 35.1472 48.639 31.7568C48.639 28.3664 45.8905 25.6179 42.5001 25.6179C39.1097 25.6179 36.3612 28.3664 36.3612 31.7568Z" fill="#03BF8C"/>
<path d="M42.5001 40.9651C42.1303 40.9651 41.7648 40.9464 41.4046 40.9099C41.1722 40.8864 40.9654 41.0652 40.9654 41.2987V51.7081C40.9654 52.5557 41.6525 53.2428 42.5001 53.2428C43.3477 53.2428 44.0348 52.5557 44.0348 51.7081V41.2987C44.0348 41.0652 43.828 40.8864 43.5957 40.9099C43.2354 40.9464 42.87 40.9651 42.5001 40.9651Z" fill="#03BF8C"/>
<path d="M37.873 45.816C38.0189 46.6509 37.4604 47.4461 36.6254 47.592C34.0284 48.0459 31.9238 48.7763 30.5136 49.6218C29.0341 50.5087 28.6876 51.2772 28.6876 51.7083C28.6876 51.9979 28.828 52.4291 29.4135 52.9827C30.0021 53.5395 30.9363 54.1115 32.218 54.6242C34.7727 55.6461 38.4074 56.3124 42.5001 56.3124C46.5929 56.3124 50.2275 55.6461 52.7823 54.6242C54.0639 54.1115 54.9981 53.5395 55.5868 52.9827C56.1722 52.4291 56.3126 51.9979 56.3126 51.7083C56.3126 51.2772 55.9661 50.5087 54.4867 49.6218C53.0765 48.7763 50.9718 48.0459 48.3748 47.592C47.5398 47.4461 46.9813 46.6509 47.1272 45.816C47.2731 44.981 48.0683 44.4225 48.9032 44.5684C51.7266 45.0618 54.2261 45.8867 56.0649 46.9892C57.8346 48.0501 59.3821 49.622 59.3821 51.7083C59.3821 53.1139 58.6636 54.2976 57.6958 55.2129C56.7312 56.125 55.4179 56.8758 53.9222 57.4741C50.9224 58.674 46.8834 59.3819 42.5001 59.3819C38.1168 59.3819 34.0778 58.674 31.078 57.4741C29.5823 56.8758 28.269 56.125 27.3044 55.2129C26.3366 54.2976 25.6182 53.1139 25.6182 51.7083C25.6182 49.622 27.1656 48.0501 28.9353 46.9892C30.7742 45.8867 33.2737 45.0618 36.097 44.5684C36.932 44.4225 37.7271 44.981 37.873 45.816Z" fill="#03BF8C"/>
</svg>
