<svg width="54" height="56" viewBox="0 0 54 56" fill="none" xmlns="http://www.w3.org/2000/svg">
<rect width="53.4286" height="56" fill="white"/>
<path d="M34.5 18.564C34.5 22.4606 29.9312 29.4046 27.925 32.2664C27.4437 32.9515 26.55 32.9515 26.075 32.2664C24.0688 29.4046 19.5 22.4606 19.5 18.564C19.5 13.8324 22.8562 10 27 10C31.1438 10 34.5 13.8324 34.5 18.564ZM35 24.3018C35.2188 23.8094 35.4188 23.317 35.6 22.8317C35.6313 22.7461 35.6625 22.6533 35.6938 22.5676L42.9437 19.2562C43.9312 18.8066 45 19.6345 45 20.8477V40.1738C45 40.8732 44.625 41.5012 44.0563 41.7652L35 45.8974V24.3018ZM17.6 19.87C17.75 20.8763 18.05 21.8897 18.4 22.8317C18.5812 23.317 18.7812 23.8094 19 24.3018V42.2434L11.0563 45.8759C10.0688 46.3256 9 45.4977 9 44.2845V24.9584C9 24.259 9.375 23.631 9.94375 23.3669L17.6062 19.87H17.6ZM29.4875 33.6937C30.3562 32.4519 31.7188 30.4322 33 28.1985V45.9901L21 42.0721V28.1985C22.2812 30.4322 23.6437 32.4519 24.5125 33.6937C25.7937 35.5207 28.2062 35.5207 29.4875 33.6937ZM27 20.8477C27.663 20.8477 28.2989 20.547 28.7678 20.0116C29.2366 19.4762 29.5 18.7502 29.5 17.993C29.5 17.2359 29.2366 16.5099 28.7678 15.9745C28.2989 15.4391 27.663 15.1384 27 15.1384C26.337 15.1384 25.7011 15.4391 25.2322 15.9745C24.7634 16.5099 24.5 17.2359 24.5 17.993C24.5 18.7502 24.7634 19.4762 25.2322 20.0116C25.7011 20.547 26.337 20.8477 27 20.8477Z" fill="#03BF8C" fill-opacity="0.2"/>
</svg>
