<svg width="18" height="14" viewBox="0 0 18 14" fill="none" xmlns="http://www.w3.org/2000/svg">
<path d="M4.08917 5.22079C4.40226 3.58561 5.51182 2.23334 6.99857 1.58326C6.5663 0.836051 5.75839 0.333336 4.83307 0.333336C3.45236 0.333336 2.33307 1.45262 2.33307 2.83334C2.33307 3.95499 3.07174 4.90411 4.08917 5.22079Z" fill="#03BF8C"/>
<path d="M4.07029 7.00791C2.1696 7.13249 0.666504 8.71363 0.666504 10.6458C0.666504 10.9335 0.899689 11.1667 1.18734 11.1667H3.18472C3.67123 10.4068 4.34227 9.77638 5.13464 9.3387C4.59435 8.68111 4.21859 7.8832 4.07029 7.00791Z" fill="#03BF8C"/>
<path d="M14.815 11.1667H16.8123C17.1 11.1667 17.3332 10.9335 17.3332 10.6458C17.3332 8.71362 15.8301 7.13247 13.9294 7.00791C13.7811 7.88318 13.4053 8.68107 12.8651 9.33865C13.6574 9.77633 14.3285 10.4067 14.815 11.1667Z" fill="#03BF8C"/>
<path d="M13.9105 5.22074C14.9278 4.90401 15.6664 3.95493 15.6664 2.83334C15.6664 1.45262 14.5471 0.333336 13.1664 0.333336C12.2411 0.333336 11.4332 0.836023 11.0009 1.5832C12.4877 2.23325 13.5974 3.58553 13.9105 5.22074Z" fill="#03BF8C"/>
<path d="M13.1248 13.6667H4.87485C4.62171 13.6667 4.4165 13.4801 4.4165 13.25C4.41656 11.6391 5.85299 10.3333 7.62491 10.3333H10.3749C12.1468 10.3333 13.5832 11.6392 13.5832 13.25C13.5832 13.4801 13.378 13.6667 13.1248 13.6667Z" fill="#03BF8C"/>
<path d="M12.3332 6.16667C12.3332 8.00762 10.8408 9.5 8.99984 9.5C7.15889 9.5 5.6665 8.00762 5.6665 6.16667C5.6665 4.32572 7.15889 2.83334 8.99984 2.83334C10.8408 2.83334 12.3332 4.32572 12.3332 6.16667Z" fill="#03BF8C"/>
</svg>
