<svg width="13" height="14" viewBox="0 0 13 14" fill="none" xmlns="http://www.w3.org/2000/svg">
<path d="M10.847 6.42299C10.847 7.33472 10.5767 8.22597 10.0702 8.98406C9.56365 9.74215 8.84373 10.333 8.00142 10.682C7.15911 11.0309 6.23224 11.1223 5.33802 10.9445C4.44379 10.7667 3.62237 10.3277 2.97761 9.6831C2.33285 9.03848 1.89371 8.21715 1.71572 7.32297C1.53773 6.42878 1.62888 5.5019 1.97764 4.65951C2.32641 3.81713 2.91713 3.09707 3.67511 2.5904C4.43309 2.08373 5.32429 1.81319 6.23602 1.81299C6.84149 1.81286 7.44107 1.932 8.00049 2.16362C8.55992 2.39523 9.06824 2.73478 9.49643 3.16287C9.92461 3.59096 10.2643 4.09921 10.496 4.65859C10.7277 5.21796 10.847 5.81751 10.847 6.42299Z" stroke="#3A3361" stroke-width="2" stroke-linecap="round" stroke-linejoin="round"/>
<path d="M12 12.1872L9.49304 9.68018" stroke="#3A3361" stroke-width="2" stroke-linecap="round" stroke-linejoin="round"/>
</svg>
