<svg width="45" height="44" viewBox="0 0 45 44" fill="none" xmlns="http://www.w3.org/2000/svg">
<path d="M33.0847 0H11.6038C8.66004 0 5.96893 1.55684 4.65244 4.02145L0.54026 11.7199C-0.378372 13.4397 -0.143965 15.5303 1.38527 16.8141C2.23052 17.5236 3.22022 18.2451 4.20991 18.7222C5.05996 19.1319 5.9434 19.3997 6.80053 19.3997C10.4903 19.3997 12.8663 16.94 13.9284 15.524C14.2249 15.1287 14.9199 15.1287 15.2164 15.524C16.2785 16.94 18.6544 19.3997 22.3442 19.3997C26.0341 19.3997 28.41 16.94 29.4721 15.524C29.7686 15.1287 30.4636 15.1287 30.7601 15.524C31.8222 16.94 34.1982 19.3997 37.888 19.3997C38.7451 19.3997 39.6285 19.1319 40.4786 18.7222C41.4683 18.2451 42.458 17.5236 43.3032 16.8141C44.8325 15.5303 45.0669 13.4397 44.1482 11.7199L40.0361 4.02145C38.7196 1.55684 36.0285 0 33.0847 0Z" fill="#03BF8C" fill-opacity="0.2"/>
<path d="M4.20991 36.3743V24.6921C4.20991 24.2919 4.60007 24.0022 5.00235 24.078C5.57225 24.1854 6.17384 24.2492 6.80053 24.2492C9.67953 24.2492 12.0258 23.3361 13.8199 22.2098C14.2772 21.9228 14.8676 21.9228 15.3249 22.2098C17.119 23.3361 19.4652 24.2492 22.3442 24.2492C25.2233 24.2492 27.5695 23.3361 29.3636 22.2098C29.8209 21.9228 30.4113 21.9228 30.8686 22.2098C32.6627 23.3361 35.009 24.2492 37.888 24.2492C38.5147 24.2492 39.1162 24.1854 39.6862 24.078C40.0884 24.0022 40.4786 24.2919 40.4786 24.6921V36.3743C40.4786 40.3921 36.999 43.6492 32.7067 43.6492H29.7923C29.1068 43.6492 28.551 43.1063 28.551 42.4367V33.9494C28.551 31.2709 26.3279 29.0995 23.5856 29.0995H21.1029C18.3606 29.0995 16.1375 31.2709 16.1375 33.9494V42.4367C16.1375 43.1063 15.5817 43.6492 14.8962 43.6492H11.9818C7.68949 43.6492 4.20991 40.3921 4.20991 36.3743Z" fill="#03BF8C" fill-opacity="0.2"/>
</svg>
