<svg width="38" height="41" viewBox="0 0 38 41" fill="none" xmlns="http://www.w3.org/2000/svg">
<path d="M33.6881 0.557587H12.2072C9.26345 0.557587 6.57234 2.11443 5.25585 4.57904L1.14367 12.2775C0.225036 13.9973 0.459443 16.0879 1.98868 17.3717C2.83393 18.0812 3.82362 18.8027 4.81332 19.2797C5.66337 19.6895 6.54681 19.9572 7.40394 19.9572C11.0937 19.9572 13.4697 17.4976 14.5318 16.0816C14.8283 15.6863 15.5233 15.6863 15.8198 16.0816C16.8819 17.4976 19.2579 19.9572 22.9477 19.9572C26.6375 19.9572 29.0134 17.4976 30.0755 16.0816C30.372 15.6863 31.067 15.6863 31.3635 16.0816C32.4256 17.4976 34.8016 19.9572 38.4914 19.9572C39.3485 19.9572 40.2319 19.6895 41.082 19.2797C42.0717 18.8027 43.0614 18.0812 43.9066 17.3717C45.4359 16.0879 45.6703 13.9973 44.7517 12.2775L40.6395 4.57904C39.323 2.11443 36.6319 0.557587 33.6881 0.557587Z" fill="#03BF8C" fill-opacity="0.2"/>
<path d="M4.81332 36.9319V25.2497C4.81332 24.8495 5.20348 24.5598 5.60575 24.6356C6.17566 24.743 6.77725 24.8068 7.40394 24.8068C10.2829 24.8068 12.6292 23.8937 14.4233 22.7674C14.8806 22.4804 15.471 22.4804 15.9283 22.7674C17.7224 23.8937 20.0687 24.8068 22.9477 24.8068C25.8267 24.8068 28.1729 23.8937 29.967 22.7674C30.4243 22.4804 31.0147 22.4804 31.472 22.7674C33.2661 23.8937 35.6124 24.8068 38.4914 24.8068C39.1181 24.8068 39.7197 24.743 40.2896 24.6356C40.6918 24.5598 41.082 24.8495 41.082 25.2497V36.9319C41.082 40.9497 37.6024 44.2068 33.3101 44.2068H30.3957C29.7102 44.2068 29.1544 43.6639 29.1544 42.9943V34.507C29.1544 31.8285 26.9313 29.6571 24.189 29.6571H21.7063C18.964 29.6571 16.7409 31.8285 16.7409 34.507V42.9943C16.7409 43.6639 16.1852 44.2068 15.4996 44.2068H12.5852C8.2929 44.2068 4.81332 40.9497 4.81332 36.9319Z" fill="#03BF8C" fill-opacity="0.2"/>
</svg>
