<svg width="42" height="39" viewBox="0 0 42 39" fill="none" xmlns="http://www.w3.org/2000/svg">
<path d="M30.71 9.99666C30.71 14.5405 25.3824 22.6379 23.0429 25.975C22.4817 26.7739 21.4395 26.7739 20.8856 25.975C18.5462 22.6379 13.2185 14.5405 13.2185 9.99666C13.2185 4.47915 17.1323 0.0102081 21.9643 0.0102081C26.7963 0.0102081 30.71 4.47915 30.71 9.99666ZM31.2931 16.6876C31.5482 16.1134 31.7814 15.5391 31.9927 14.9732C32.0292 14.8734 32.0656 14.7652 32.1021 14.6653L40.5563 10.8039C41.7078 10.2796 42.9541 11.245 42.9541 12.6597V35.1958C42.9541 36.0114 42.5168 36.7437 41.8536 37.0516L31.2931 41.8701V16.6876ZM11.0029 11.5196C11.1779 12.693 11.5277 13.8747 11.9358 14.9732C12.1472 15.5391 12.3804 16.1134 12.6355 16.6876V37.6092L3.37228 41.8451C2.22076 42.3694 0.974487 41.4041 0.974487 39.9893V17.4532C0.974487 16.6377 1.41177 15.9053 2.07499 15.5974L11.0102 11.5196H11.0029ZM24.865 27.6394C25.878 26.1914 27.4668 23.8362 28.9609 21.2314V41.9783L14.9677 37.4095V21.2314C16.4618 23.8362 18.0506 26.1914 19.0636 27.6394C20.5577 29.7698 23.3709 29.7698 24.865 27.6394ZM21.9643 12.6597C22.7375 12.6597 23.479 12.309 24.0257 11.6847C24.5724 11.0605 24.8795 10.2138 24.8795 9.3309C24.8795 8.44804 24.5724 7.60134 24.0257 6.97707C23.479 6.3528 22.7375 6.00208 21.9643 6.00208C21.1911 6.00208 20.4496 6.3528 19.9029 6.97707C19.3562 7.60134 19.049 8.44804 19.049 9.3309C19.049 10.2138 19.3562 11.0605 19.9029 11.6847C20.4496 12.309 21.1911 12.6597 21.9643 12.6597Z" fill="#03BF8C" fill-opacity="0.2"/>
</svg>
